<svg width="35" height="34" viewBox="0 0 35 34" fill="none" xmlns="http://www.w3.org/2000/svg">
<g clip-path="url(#clip0_28002_2213)">
<g clip-path="url(#clip1_28002_2213)">
<g clip-path="url(#clip2_28002_2213)">
<path d="M15.059 34.0051C14.8944 34.0046 14.7321 33.966 14.5849 33.8922C14.4376 33.8185 14.3095 33.7117 14.2104 33.5801L8.75627 26.3098C8.35582 25.7742 8.13068 25.128 8.11166 24.4595C8.09264 23.791 8.28067 23.133 8.65002 22.5755C8.89391 22.21 9.20971 21.8979 9.57814 21.6584C9.94658 21.419 10.3599 21.257 10.793 21.1825C11.2261 21.108 11.6698 21.1225 12.0971 21.2251C12.5243 21.3277 12.9262 21.5163 13.2783 21.7793L13.9894 22.3134V10.6344C13.9894 9.78808 14.3256 8.97643 14.9241 8.37799C15.5225 7.77956 16.3342 7.44336 17.1805 7.44336C18.0268 7.44336 18.8384 7.77956 19.4369 8.37799C20.0353 8.97643 20.3715 9.78808 20.3715 10.6344V18.2816L25.4517 19.4121C26.7113 19.6945 27.8254 20.4247 28.5869 21.4671C29.3483 22.5095 29.7052 23.7929 29.5912 25.0787L28.8673 33.0432C28.8445 33.3078 28.723 33.554 28.5269 33.7331C28.3308 33.9121 28.0745 34.0107 27.809 34.0094L15.059 34.0051ZM26.8386 31.8844L27.4747 24.8861C27.5435 24.1145 27.3296 23.3443 26.8727 22.7188C26.4158 22.0933 25.7472 21.6552 24.9913 21.4861L19.0781 20.1714C18.8416 20.1201 18.6299 19.9891 18.4785 19.8003C18.3272 19.6115 18.2452 19.3764 18.2465 19.1344V10.6344C18.2365 10.3584 18.1197 10.097 17.9209 9.90534C17.7221 9.71364 17.4567 9.60652 17.1805 9.60652C16.9043 9.60652 16.6389 9.71364 16.44 9.90534C16.2412 10.097 16.1245 10.3584 16.1144 10.6344V24.4427C16.1152 24.5824 16.0882 24.7209 16.0351 24.8501C15.982 24.9794 15.9037 25.0968 15.8049 25.1956C15.7061 25.2944 15.5887 25.3727 15.4594 25.4258C15.3302 25.4789 15.1917 25.5059 15.0519 25.5052C14.8217 25.5048 14.5976 25.4303 14.413 25.2927L12.0047 23.4822L11.9551 23.4467C11.7377 23.2989 11.4747 23.2333 11.2133 23.2617C10.9519 23.2901 10.7092 23.4107 10.5286 23.6018C10.3481 23.793 10.2415 24.0422 10.2279 24.3047C10.2144 24.5673 10.2949 24.8262 10.4549 25.0348L15.5903 31.8801L26.8386 31.8844Z" fill="black"/>
<path d="M9.74673 20.3376C9.46785 20.3385 9.19995 20.229 9.00156 20.033C4.40306 15.5195 4.33364 8.10468 8.84714 3.50477C9.93278 2.39315 11.2307 1.51098 12.6638 0.910614C14.097 0.31025 15.6361 0.00393483 17.1899 0.00984968C20.274 0.00984968 23.181 1.1956 25.3754 3.35035C27.226 5.16599 28.4202 7.5455 28.77 10.1143C29.1198 12.6831 28.6054 15.2953 27.3077 17.5397C27.1657 17.7823 26.9337 17.959 26.6621 18.0317C26.3906 18.1044 26.1013 18.0671 25.8571 17.9278C25.6132 17.7866 25.4354 17.5543 25.3627 17.2821C25.2899 17.0098 25.3281 16.7199 25.4689 16.4758C26.5303 14.6393 26.9509 12.5022 26.6647 10.4005C26.3785 8.2988 25.4017 6.35193 23.8879 4.86618C22.1029 3.1086 19.6964 2.12654 17.1913 2.13343C15.92 2.12864 14.6607 2.37937 13.4882 2.87071C12.3157 3.36205 11.2539 4.084 10.3658 4.99368C8.59206 6.8053 7.60933 9.24653 7.63324 11.7818C7.65714 14.3171 8.68572 16.7393 10.4933 18.5172C10.6439 18.6651 10.747 18.8546 10.7895 19.0614C10.8319 19.2682 10.8118 19.4829 10.7317 19.6783C10.6516 19.8736 10.5151 20.0406 10.3397 20.158C10.1643 20.2755 9.95784 20.338 9.74673 20.3376Z" fill="black"/>
</g>
</g>
</g>
<defs>
<clipPath id="clip0_28002_2213">
<rect width="34" height="34" fill="white" transform="translate(0.529785)"/>
</clipPath>
<clipPath id="clip1_28002_2213">
<rect width="34" height="34" fill="white" transform="translate(0.529785)"/>
</clipPath>
<clipPath id="clip2_28002_2213">
<rect width="34" height="34" fill="white" transform="translate(0.529785)"/>
</clipPath>
</defs>
</svg>
