<svg width="35" height="35" viewBox="0 0 35 35" fill="none" xmlns="http://www.w3.org/2000/svg">
<g clip-path="url(#clip0_28004_7679)">
<path d="M14.56 34.7356C14.3953 34.7351 14.2331 34.6964 14.0858 34.6227C13.9386 34.549 13.8105 34.4421 13.7114 34.3106L8.25725 27.0403C7.8568 26.5047 7.63166 25.8584 7.61264 25.1899C7.59362 24.5215 7.78165 23.8635 8.15099 23.306C8.39489 22.9404 8.71068 22.6284 9.07912 22.3889C9.44755 22.1494 9.86091 21.9875 10.294 21.913C10.727 21.8385 11.1708 21.853 11.598 21.9556C12.0253 22.0582 12.4272 22.2468 12.7792 22.5098L13.4904 23.0439V11.3649C13.4904 10.5186 13.8266 9.7069 14.425 9.10846C15.0235 8.51003 15.8351 8.17383 16.6815 8.17383C17.5278 8.17383 18.3394 8.51003 18.9379 9.10846C19.5363 9.7069 19.8725 10.5186 19.8725 11.3649V19.012L24.9527 20.1425C26.2123 20.4249 27.3264 21.1552 28.0878 22.1976C28.8493 23.2399 29.2062 24.5234 29.0922 25.8092L28.3682 33.7737C28.3455 34.0382 28.224 34.2845 28.0279 34.4635C27.8318 34.6425 27.5755 34.7412 27.31 34.7399L14.56 34.7356ZM26.3396 32.6149L26.9757 25.6165C27.0445 24.845 26.8306 24.0748 26.3737 23.4493C25.9168 22.8237 25.2482 22.3856 24.4922 22.2165L18.5791 20.9019C18.3426 20.8506 18.1309 20.7195 17.9795 20.5307C17.8281 20.3419 17.7462 20.1069 17.7475 19.8649V11.3649C17.7374 11.0889 17.6207 10.8275 17.4219 10.6358C17.2231 10.4441 16.9576 10.337 16.6815 10.337C16.4053 10.337 16.1398 10.4441 15.941 10.6358C15.7422 10.8275 15.6255 11.0889 15.6154 11.3649V25.1731C15.6162 25.3129 15.5892 25.4514 15.5361 25.5806C15.4829 25.7099 15.4047 25.8273 15.3059 25.9261C15.2071 26.0249 15.0896 26.1031 14.9604 26.1563C14.8312 26.2094 14.6927 26.2364 14.5529 26.2356C14.3226 26.2353 14.0986 26.1608 13.914 26.0231L11.5057 24.2126L11.4561 24.1772C11.2387 24.0293 10.9757 23.9637 10.7143 23.9922C10.4529 24.0206 10.2102 24.1412 10.0296 24.3323C9.84903 24.5234 9.74244 24.7726 9.72892 25.0352C9.7154 25.2978 9.79585 25.5566 9.95583 25.7653L15.0912 32.6106L26.3396 32.6149Z" fill="black"/>
<path d="M9.24673 21.0681C8.96785 21.069 8.69995 20.9595 8.50156 20.7635C3.90306 16.25 3.83364 8.83515 8.34714 4.23523C9.43278 3.12362 10.7307 2.24145 12.1638 1.64108C13.597 1.04072 15.1361 0.734404 16.6899 0.740318C19.774 0.740318 22.681 1.92607 24.8754 4.08082C26.726 5.89645 27.9202 8.27597 28.27 10.8448C28.6198 13.4136 28.1054 16.0258 26.8077 18.2702C26.6657 18.5127 26.4337 18.6895 26.1621 18.7622C25.8906 18.8348 25.6013 18.7975 25.3571 18.6583C25.1132 18.517 24.9354 18.2848 24.8627 18.0126C24.7899 17.7403 24.8281 17.4503 24.9689 17.2062C26.0303 15.3698 26.4509 13.2326 26.1647 11.1309C25.8785 9.02927 24.9017 7.0824 23.3879 5.59665C21.6029 3.83907 19.1964 2.85701 16.6913 2.8639C15.42 2.85911 14.1607 3.10983 12.9882 3.60118C11.8157 4.09252 10.7539 4.81447 9.86581 5.72415C8.09206 7.53577 7.10933 9.977 7.13324 12.5123C7.15714 15.0475 8.18572 17.4698 9.99331 19.2477C10.1439 19.3956 10.247 19.5851 10.2895 19.7919C10.3319 19.9986 10.3118 20.2134 10.2317 20.4087C10.1516 20.6041 10.0151 20.7711 9.83971 20.8885C9.66428 21.0059 9.45784 21.0685 9.24673 21.0681Z" fill="black"/>
</g>
<defs>
<clipPath id="clip0_28004_7679">
<rect width="34" height="34" fill="white" transform="translate(0.0302734 0.730469)"/>
</clipPath>
</defs>
</svg>
