<svg width="42" height="33" viewBox="0 0 42 33" fill="none" xmlns="http://www.w3.org/2000/svg">
<path d="M32.2584 15.0113L32.1531 14.8008L32.2584 13.3273L32.3636 13.1694V12.8537L32.2584 12.6432L32.1531 12.8537V12.9589L31.89 13.0642L31.1006 11.9591L30.7849 11.8538L30.6797 11.5907H30.4165L30.3113 10.6961L30.1008 10.4856V10.6961L29.6272 10.3804V10.4856H29.5219H29.3114L29.1009 9.43314L28.6273 9.01215L28.8378 8.80166L27.9432 8.2228H27.838V8.11755L26.9434 7.74918L26.7329 7.43344L26.8381 7.32819L26.575 7.06507V6.53884L25.8909 4.80225V4.48651L25.2594 3.90765V3.69715H25.1015L24.6805 3.90765V3.5919L24.47 3.22354V2.53943L24.2069 2.11844L24.3122 2.01319L23.9964 1.75007L23.8912 1.06596H23.7859V0.855469H23.6281L23.4176 1.06596L23.2071 1.85532L23.1018 2.01319L22.9966 2.32893L23.2071 2.43418L23.1018 2.64468L21.9441 6.64408L21.0495 6.27572L20.9443 6.06522L20.4706 5.85473H20.2601L19.2603 4.9075L19.1024 5.06537H18.9972L18.1026 4.48651V4.27601H17.9973V4.01289L18.5762 3.43403V3.22354L18.3131 3.32879L18.4709 2.9078L18.8919 2.80255V2.43418L19.1024 2.32893V2.11844L18.8919 1.85532H18.7867L18.6814 2.22369L18.3131 2.11844V1.75007L17.9973 2.01319L17.629 2.11844L17.3132 1.85532L17.208 2.01319L16.8396 1.75007V1.64483L15.7345 1.43433L15.6293 1.17121H15.1556V1.32908L15.2609 1.43433H15.524L15.7345 1.53958L15.6293 1.85532L15.3661 2.11844H14.4715L14.261 2.32893H14.0505L13.6822 2.80255L13.7874 3.01304L13.1033 3.8024L13.4717 4.27601H13.2612V4.48651L12.9981 4.38126L12.8928 4.48651L12.6823 4.27601H12.4718L12.1035 4.38126V4.697L11.9982 4.80225L12.1035 4.11814L11.6825 3.8024L11.5246 3.5919L11.1036 3.32879L10.9984 3.5919H10.5248L10.4195 3.90765L10.209 4.01289H9.7354V4.27601V4.48651H9.5249V4.59176L9.7354 4.697H9.36703L9.05129 4.9075L9.15653 5.38111L9.36703 5.48636H8.57767L8.47243 5.27586H8.36718L8.47243 5.48636L8.36718 5.59161L8.57767 5.85473L8.73554 5.95997L8.57767 6.06522H8.36718V6.38096L7.94619 5.48636L7.26208 6.17047L7.36733 6.85458H7.47257L6.99896 7.32819L6.89371 7.43344H6.78847V7.64393L6.2096 8.32804L1.26297 10.1173L0.999851 10.4856H0.894604H0.789356V10.1173H0.684109L0.473614 10.8014L0.578861 11.275L0.210495 12.1696L0.894604 13.643L0.789356 13.9588L0.315743 13.4325V13.5378L0.578861 13.9588L0.473614 14.1167L0 13.5378L2.05233 18.8528L1.94708 20.3263L1.57871 20.4315L1.47347 20.9051L1.57871 21.0104H1.78921L2.36807 21.3261V21.4314L2.84168 21.6945L6.57797 20.4315L6.89371 20.642L7.10421 20.5368L7.26208 20.7472L7.47257 20.642L7.57782 20.7472L7.68307 20.642H8.15668H8.26193L9.05129 19.7474L14.7347 18.3792L15.3661 18.8528L15.7345 18.7475L16.2081 19.0633L16.4186 18.958H16.5239L16.7344 19.1685V19.3264L16.9975 19.4317V19.6422L17.4185 20.1158L17.5237 20.4315L17.629 20.5368L17.8921 21.0104L17.7868 21.1156L18.2078 21.5892H18.3131V21.3261L18.8919 20.5368L19.4708 20.4315V20.1158L19.7865 19.7474V19.6422L19.8918 19.4317V19.6422H20.0497L19.8918 20.3263V20.4315V20.5368L19.6813 20.642V21.3261L19.4708 21.5892L19.2603 21.6945L19.1024 21.7997H19.7865L20.1549 21.0104L20.3654 21.2209L20.2601 22.1155H20.7338L20.9443 21.905L21.0495 22.0102L20.9443 22.1155L21.3652 22.7996V23.4837L21.9441 24.273L22.6282 24.6414L22.7335 24.7467L22.8387 24.8519L22.9966 24.6414H23.2071L24.47 25.1676L25.2594 24.6414V24.4835L25.3647 24.3783H25.6804V24.4835L25.5751 24.6414L25.6804 24.8519L25.8909 24.7467V24.6414L26.154 24.7467V24.9572L26.575 25.1676L26.7329 25.0624L29.3114 24.1678L31.2585 19.6422L31.7848 19.3264V18.6423L32.1531 18.1687L32.4689 15.2218L32.2584 15.0113Z" fill="#BAC3D9"/>
<path d="M28.4168 28.1146L28.3116 27.22L28.1537 27.1148L27.1539 27.3253V27.4305L25.4699 26.9043L25.6804 28.0094L25.7857 28.1146L25.8909 28.3778L26.0488 28.483V28.5883H25.8909L26.2593 29.3776L26.575 29.4829V29.5881L27.2591 29.8512V29.3776H27.3644L27.5222 29.2724V29.0092H27.838L27.9432 29.1671V29.2724H28.0485V28.5883L28.1537 28.3778H28.3116H28.4168V28.1146Z" fill="#BAC3D9"/>
<path d="M41.9938 24.1676L41.8885 24.0624L41.2044 24.3781L40.0467 24.0624L39.8362 23.1678H39.6257V23.5888H39.5204L39.1521 23.273L39.0468 22.7994L38.8363 22.4837V22.3784L38.9416 22.2206L37.4681 21.2207L37.6786 21.5891V21.9048L38.047 22.0101L38.2575 22.6942H38.3627H38.7311V22.9047L38.5732 23.0625L38.8363 23.1678V23.3783H38.9416L39.0468 23.4835V24.6412L38.9416 24.7465V25.0622L38.5732 25.4306L38.2575 25.5359V25.7463L38.3627 25.8516H38.5732L38.8363 26.1147H39.1521L39.4152 26.4305L39.2573 26.9041L39.1521 27.2198L39.0468 27.4303L39.2573 27.5882H39.4152V27.6934H39.6257L40.836 26.22V25.9568L40.7308 25.8516V25.6411L40.9939 25.4306L41.5201 25.3254V25.0622L41.9938 24.6412V24.1676Z" fill="#BAC3D9"/>
<path d="M38.5732 27.325V27.2197L38.2575 27.4302L38.3627 27.1145L37.9417 27.4302H37.7839L37.6786 27.325V27.0092H37.5734L37.3629 26.904V26.7461L36.8893 27.2197V27.4302L36.3104 28.1143V28.4827L35.3105 29.4825H35.2053L33.153 30.956V31.0612L33.0477 31.1665H32.8372V31.4296V31.5349H32.6267V31.8506L32.4689 31.9558L32.6267 32.1137V32.3242L32.732 32.4295H32.8372L33.0477 32.219L33.153 32.4295L33.6266 32.5347L33.7318 32.64V32.7452H34.5212L34.7317 32.64H34.9948L35.521 31.9558H35.6789V31.7454L36.0999 31.1665L36.2051 30.4824L36.9945 30.0614H37.5734V29.8509H37.4681V29.3773L37.9417 28.9037L38.047 28.6932L38.5732 28.0091V27.7986L38.468 27.6933L38.7311 27.325H38.5732Z" fill="#BAC3D9"/>
</svg>
