<svg width="16" height="16" viewBox="0 0 16 16" fill="none" xmlns="http://www.w3.org/2000/svg">
<path d="M12.6665 7.33366H8.6665V3.33366C8.6665 3.15685 8.59627 2.98728 8.47124 2.86225C8.34622 2.73723 8.17665 2.66699 7.99984 2.66699C7.82303 2.66699 7.65346 2.73723 7.52843 2.86225C7.40341 2.98728 7.33317 3.15685 7.33317 3.33366V7.33366H3.33317C3.15636 7.33366 2.98679 7.4039 2.86177 7.52892C2.73674 7.65394 2.6665 7.82351 2.6665 8.00033C2.6665 8.17714 2.73674 8.34671 2.86177 8.47173C2.98679 8.59675 3.15636 8.66699 3.33317 8.66699H7.33317V12.667C7.33317 12.8438 7.40341 13.0134 7.52843 13.1384C7.65346 13.2634 7.82303 13.3337 7.99984 13.3337C8.17665 13.3337 8.34622 13.2634 8.47124 13.1384C8.59627 13.0134 8.6665 12.8438 8.6665 12.667V8.66699H12.6665C12.8433 8.66699 13.0129 8.59675 13.1379 8.47173C13.2629 8.34671 13.3332 8.17714 13.3332 8.00033C13.3332 7.82351 13.2629 7.65394 13.1379 7.52892C13.0129 7.4039 12.8433 7.33366 12.6665 7.33366Z" fill="black"/>
</svg>
