<svg width="35" height="35" viewBox="0 0 35 35" fill="none" xmlns="http://www.w3.org/2000/svg">
<g clip-path="url(#clip0_28004_7692)">
<g clip-path="url(#clip1_28004_7692)">
<path d="M1.09277 27.293C6.40527 27.293 4.28027 28.3555 18.0928 28.3555C22.3428 28.3555 26.5928 27.293 27.6553 23.043" stroke="black" stroke-width="2.125" stroke-linecap="round" stroke-linejoin="round"/>
<path d="M1.09277 16.5159H4.46727C4.87811 16.5159 5.26627 16.3317 5.52552 16.0144L11.263 10.3633L16.6874 11.4484C17.4609 11.6029 17.9695 12.2205 17.6324 13.5734C17.4978 14.1132 17.0501 14.5169 16.499 14.5949L13.8428 14.9816C13.1869 15.0468 12.7094 15.6319 12.7746 16.2878C12.776 16.3034 12.7774 16.3189 12.7803 16.3345V19.9569C12.691 20.3692 12.4729 20.7432 12.1569 21.0237L9.21311 23.3456" stroke="black" stroke-width="2.125" stroke-linecap="round" stroke-linejoin="round"/>
<path d="M17.0303 23.043H30.8428C32.0158 23.043 32.9678 22.091 32.9678 20.918V9.23047C32.9678 8.05747 32.0158 7.10547 30.8428 7.10547H14.9053C13.7323 7.10547 12.7803 8.05747 12.7803 9.23047V10.6726" stroke="black" stroke-width="2.125" stroke-linecap="round" stroke-linejoin="round"/>
<path d="M17.7275 12.418H32.968" stroke="black" stroke-width="2.125" stroke-linecap="round" stroke-linejoin="round"/>
<path d="M28.7178 16.668H26.5928" stroke="black" stroke-width="2.125" stroke-linecap="round" stroke-linejoin="round"/>
</g>
</g>
<defs>
<clipPath id="clip0_28004_7692">
<rect width="34" height="34" fill="white" transform="translate(0.0302734 0.730469)"/>
</clipPath>
<clipPath id="clip1_28004_7692">
<rect width="34" height="34" fill="white" transform="translate(0.0302734 0.730469)"/>
</clipPath>
</defs>
</svg>
