<svg width="20" height="21" viewBox="0 0 20 21" fill="none" xmlns="http://www.w3.org/2000/svg">
<g clip-path="url(#clip0_28004_6756)">
<g clip-path="url(#clip1_28004_6756)">
<g clip-path="url(#clip2_28004_6756)">
<path d="M17.7085 5.50156C17.7085 5.20324 17.6018 4.91476 17.4077 4.68823L13.7077 1.1049C13.5907 0.967187 13.4453 0.856467 13.2814 0.780364C13.1176 0.704261 12.9392 0.664582 12.7585 0.664062H3.9585C3.62698 0.664063 3.30903 0.795759 3.07461 1.03018C2.84019 1.2646 2.7085 1.58254 2.7085 1.91406V18.1641C2.7085 18.4956 2.84019 18.8135 3.07461 19.0479C3.30903 19.2824 3.62698 19.4141 3.9585 19.4141H16.4585C16.79 19.4141 17.108 19.2824 17.3424 19.0479C17.5768 18.8135 17.7085 18.4956 17.7085 18.1641V5.50156Z" stroke="black" stroke-width="1.25" stroke-linecap="round" stroke-linejoin="round"/>
<path d="M6.4585 14.4141H7.7085M12.7085 14.4141H11.4585M6.4585 0.664062V4.41406M10.2085 0.664062V4.41406M7.7085 11.9141H11.4585C11.79 11.9141 12.108 12.0458 12.3424 12.2802C12.5768 12.5146 12.7085 12.8325 12.7085 13.1641V15.6641C12.7085 15.9956 12.5768 16.3135 12.3424 16.5479C12.108 16.7824 11.79 16.9141 11.4585 16.9141H7.7085C7.37698 16.9141 7.05903 16.7824 6.82461 16.5479C6.59019 16.3135 6.4585 15.9956 6.4585 15.6641V13.1641C6.4585 12.8325 6.59019 12.5146 6.82461 12.2802C7.05903 12.0458 7.37698 11.9141 7.7085 11.9141Z" stroke="black" stroke-width="1.25" stroke-linecap="round" stroke-linejoin="round"/>
</g>
</g>
</g>
<defs>
<clipPath id="clip0_28004_6756">
<rect width="20" height="20" fill="white" transform="translate(0 0.0390625)"/>
</clipPath>
<clipPath id="clip1_28004_6756">
<rect width="20" height="20" fill="white" transform="translate(0 0.0390625)"/>
</clipPath>
<clipPath id="clip2_28004_6756">
<rect width="20" height="20" fill="white" transform="translate(0 0.0390625)"/>
</clipPath>
</defs>
</svg>
