<svg width="35" height="34" viewBox="0 0 35 34" fill="none" xmlns="http://www.w3.org/2000/svg">
<g clip-path="url(#clip0_28002_2238)">
<g clip-path="url(#clip1_28002_2238)">
<path d="M8.6115 34C7.30393 33.9989 6.05018 33.4792 5.1252 32.5551C4.20021 31.6309 3.6795 30.3776 3.67725 29.07V7.05925C3.67837 5.75095 4.19859 4.49656 5.1237 3.57145C6.0488 2.64634 7.3032 2.12613 8.6115 2.125H11.1147C11.3965 2.125 11.6668 2.23694 11.866 2.4362C12.0653 2.63546 12.1772 2.90571 12.1772 3.1875C12.1772 3.46929 12.0653 3.73954 11.866 3.9388C11.6668 4.13806 11.3965 4.25 11.1147 4.25H8.6115C7.06308 4.25 5.80225 5.51083 5.80225 7.05925V25.5H20.6772V22.3125C20.6772 22.0307 20.7892 21.7605 20.9884 21.5612C21.1877 21.3619 21.458 21.25 21.7397 21.25C22.0215 21.25 22.2918 21.3619 22.491 21.5612C22.6903 21.7605 22.8022 22.0307 22.8022 22.3125V29.0672C22.8007 30.375 22.2806 31.6288 21.3558 32.5536C20.431 33.4783 19.1772 33.9985 17.8694 34H8.6115ZM5.80225 29.0672C5.80225 30.6156 7.06308 31.875 8.61008 31.875H17.868C18.6126 31.8743 19.3265 31.5782 19.8531 31.0519C20.3797 30.5255 20.6761 29.8117 20.6772 29.0672V27.625H5.80225V29.0672Z" fill="black"/>
<path d="M21.7397 19.125C16.4669 19.125 12.1772 14.8353 12.1772 9.5625C12.1772 4.28967 16.4669 0 21.7397 0C27.0126 0 31.3022 4.28967 31.3022 9.5625C31.3022 14.8353 27.0126 19.125 21.7397 19.125ZM21.7397 2.125C17.6385 2.125 14.3022 5.46125 14.3022 9.5625C14.3022 13.6637 17.6385 17 21.7397 17C25.841 17 29.1772 13.6637 29.1772 9.5625C29.1772 5.46125 25.841 2.125 21.7397 2.125Z" fill="black"/>
<path d="M20.5654 14.066C20.2873 14.0669 20.0117 14.0126 19.7547 13.9063C19.4977 13.8001 19.2643 13.644 19.068 13.447L16.9416 11.3191C16.8424 11.2209 16.7638 11.1039 16.7103 10.975C16.6568 10.8461 16.6295 10.7079 16.6299 10.5683C16.6299 10.285 16.7404 10.0172 16.9416 9.81746C17.0398 9.71833 17.1568 9.63972 17.2857 9.58622C17.4146 9.53271 17.5528 9.50538 17.6924 9.5058C17.9757 9.5058 18.2435 9.6163 18.4432 9.81746L20.5682 11.9425L24.6766 6.45571C24.776 6.32379 24.9046 6.21665 25.0523 6.14268C25.2 6.0687 25.3628 6.0299 25.528 6.0293C25.725 6.02949 25.9182 6.0845 26.0858 6.18817C26.2534 6.29183 26.3889 6.44007 26.4771 6.61632C26.5653 6.79256 26.6027 6.98986 26.5852 7.18616C26.5677 7.38246 26.496 7.57002 26.378 7.72788L22.2696 13.2146C22.0716 13.4796 21.8144 13.6946 21.5185 13.8425C21.2226 13.9903 20.8962 14.0669 20.5654 14.066Z" fill="black"/>
</g>
</g>
<defs>
<clipPath id="clip0_28002_2238">
<rect width="34" height="34" fill="white" transform="translate(0.489746)"/>
</clipPath>
<clipPath id="clip1_28002_2238">
<rect width="34" height="34" fill="white" transform="translate(0.489746)"/>
</clipPath>
</defs>
</svg>
