<svg width="140" height="23" viewBox="0 0 140 23" fill="none" xmlns="http://www.w3.org/2000/svg">
<path d="M2.95635 21.9933H0.319336V0.251953H8.5096C13.1321 0.251953 16.0794 2.72327 16.0794 6.72743C16.0794 10.7629 13.1942 13.2029 8.5096 13.2029H2.95635V21.9933ZM2.95635 2.59814V10.8567H8.5096C11.581 10.8567 13.2873 9.35516 13.2873 6.72743C13.2873 4.06842 11.581 2.59814 8.5096 2.59814H2.95635Z" fill="black"/>
<path d="M24.8266 22.3687C21.2589 22.3687 19.2424 20.0851 19.2424 16.2373V6.97769H21.8173V16.0809C21.8173 18.7086 23.0583 20.1163 25.4161 20.1163C27.7739 20.1163 29.5112 18.6148 29.5112 16.1122V6.97769H32.0862V21.9933H29.5112V20.0851C28.4254 21.6179 26.8742 22.3687 24.8266 22.3687Z" fill="black"/>
<path d="M39.1802 21.9933H36.6052V0.251953H39.1802V21.9933Z" fill="black"/>
<path d="M49.341 22.3687C47.4485 22.3687 45.8353 21.8995 44.5633 20.9923C43.2913 20.0851 42.6398 18.7712 42.6088 17.0507L44.9976 16.6127C45.2148 19.0215 46.7039 20.2102 49.403 20.2102C51.3575 20.2102 52.6605 19.3969 52.6605 17.8014C52.6605 16.5501 52.009 16.0496 50.0545 15.7055L48.3172 15.424C45.2148 14.8296 43.3534 13.8286 43.3534 10.9193C43.3534 8.29156 45.6181 6.6023 49.2169 6.6023C52.7225 6.6023 54.7701 8.32284 55.2355 10.9506L52.9087 11.5762C52.5674 9.94953 51.3575 8.7608 49.1238 8.7608C47.0452 8.7608 45.8663 9.54286 45.8663 10.888C45.8663 12.2332 46.6109 12.765 48.7205 13.1091L50.4888 13.4219C53.4981 13.9537 55.3285 14.986 55.3285 17.7702C55.3285 20.6482 52.8466 22.3687 49.341 22.3687Z" fill="black"/>
<path d="M70.1962 16.8004L72.1817 18.0517C70.7236 20.9297 68.4588 22.3687 65.3875 22.3687C63.1848 22.3687 61.3854 21.6179 59.9583 20.1476C58.5002 18.6774 57.7867 16.7691 57.7867 14.4855C57.7867 12.1706 58.4692 10.2624 59.8653 8.79208C61.2613 7.3218 62.9987 6.6023 65.1393 6.6023C69.3895 6.6023 72.0266 9.60542 72.0266 14.2352C72.0266 14.6732 72.0266 14.9547 71.9955 15.0799H60.4857C60.6409 18.2081 62.4402 20.1163 65.3875 20.1163C67.4971 20.1163 69.1103 19.0215 70.1962 16.8004ZM65.1083 8.82336C62.6264 8.82336 60.889 10.3875 60.5478 12.9839H69.3585C69.1414 10.1998 67.7143 8.82336 65.1083 8.82336Z" fill="black"/>
<path d="M78.7253 21.9933H76.2123V0.251953H79.0665L90.8556 17.864V0.251953H93.3685V21.9933H90.5143L78.7253 4.38125V21.9933Z" fill="black"/>
<path d="M109.582 16.8004L111.567 18.0517C110.109 20.9297 107.844 22.3687 104.773 22.3687C102.57 22.3687 100.771 21.6179 99.3439 20.1476C97.8858 18.6774 97.1723 16.7691 97.1723 14.4855C97.1723 12.1706 97.8548 10.2624 99.2509 8.79208C100.647 7.3218 102.384 6.6023 104.525 6.6023C108.775 6.6023 111.412 9.60542 111.412 14.2352C111.412 14.6732 111.412 14.9547 111.381 15.0799H99.8713C100.026 18.2081 101.826 20.1163 104.773 20.1163C106.883 20.1163 108.496 19.0215 109.582 16.8004ZM104.494 8.82336C102.012 8.82336 100.275 10.3875 99.9334 12.9839H108.744C108.527 10.1998 107.1 8.82336 104.494 8.82336Z" fill="black"/>
<path d="M119.879 22.3687C117.056 22.3687 115.66 20.742 115.66 17.5199V9.23003H113.209V6.97769H115.66L116.187 2.50429H118.235V6.97769H124.254V9.23003H118.235V17.5825C118.235 19.2092 118.824 20.0225 119.972 20.0225C121.058 20.0225 122.02 19.084 122.857 17.1758L124.967 18.1768C123.943 20.7107 122.02 22.3687 119.879 22.3687Z" fill="black"/>
<path d="M133.05 22.3687C131.158 22.3687 129.545 21.8995 128.273 20.9923C127.001 20.0851 126.349 18.7712 126.318 17.0507L128.707 16.6127C128.924 19.0215 130.413 20.2102 133.113 20.2102C135.067 20.2102 136.37 19.3969 136.37 17.8014C136.37 16.5501 135.719 16.0496 133.764 15.7055L132.027 15.424C128.924 14.8296 127.063 13.8286 127.063 10.9193C127.063 8.29156 129.328 6.6023 132.926 6.6023C136.432 6.6023 138.48 8.32284 138.945 10.9506L136.618 11.5762C136.277 9.94953 135.067 8.7608 132.833 8.7608C130.755 8.7608 129.576 9.54286 129.576 10.888C129.576 12.2332 130.32 12.765 132.43 13.1091L134.198 13.4219C137.208 13.9537 139.038 14.986 139.038 17.7702C139.038 20.6482 136.556 22.3687 133.05 22.3687Z" fill="black"/>
</svg>
