<svg width="94" height="15" viewBox="0 0 94 15" fill="none" xmlns="http://www.w3.org/2000/svg">
<path d="M2.62491 14.5724H0.873047V0.0117188H6.31413C9.38505 0.0117188 11.343 1.66682 11.343 4.34851C11.343 7.05115 9.42627 8.6853 6.31413 8.6853H2.62491V14.5724ZM2.62491 1.58302V7.114H6.31413C8.35454 7.114 9.4881 6.10837 9.4881 4.34851C9.4881 2.5677 8.35454 1.58302 6.31413 1.58302H2.62491Z" fill="black"/>
<path d="M17.1541 14.8238C14.7839 14.8238 13.4443 13.2944 13.4443 10.7175V4.51611H15.1549V10.6128C15.1549 12.3726 15.9793 13.3154 17.5457 13.3154C19.1121 13.3154 20.2663 12.3098 20.2663 10.6337V4.51611H21.9769V14.5724H20.2663V13.2944C19.5449 14.321 18.5144 14.8238 17.1541 14.8238Z" fill="black"/>
<path d="M26.6897 14.5724H24.9791V0.0117188H26.6897V14.5724Z" fill="black"/>
<path d="M33.4399 14.8238C32.1826 14.8238 31.1109 14.5096 30.2659 13.902C29.4209 13.2944 28.9881 12.4145 28.9674 11.2622L30.5544 10.9689C30.6987 12.5821 31.688 13.3783 33.4811 13.3783C34.7795 13.3783 35.6451 12.8335 35.6451 11.765C35.6451 10.927 35.2123 10.5918 33.9139 10.3614L32.7597 10.1728C30.6987 9.77473 29.4621 9.10431 29.4621 7.1559C29.4621 5.39604 30.9666 4.26471 33.3574 4.26471C35.6864 4.26471 37.0466 5.41699 37.3558 7.17685L35.81 7.59586C35.5833 6.50643 34.7795 5.7103 33.2956 5.7103C31.9147 5.7103 31.1315 6.23407 31.1315 7.13495C31.1315 8.03583 31.6262 8.39199 33.0277 8.62245L34.2024 8.83195C36.2016 9.18812 37.4176 9.87949 37.4176 11.7441C37.4176 13.6716 35.7688 14.8238 33.4399 14.8238Z" fill="black"/>
<path d="M47.2947 11.0946L48.6138 11.9327C47.6451 13.8601 46.1406 14.8238 44.1001 14.8238C42.6368 14.8238 41.4414 14.321 40.4934 13.3363C39.5247 12.3517 39.0507 11.0737 39.0507 9.54428C39.0507 7.99393 39.5041 6.71594 40.4315 5.73125C41.359 4.74657 42.5132 4.26471 43.9353 4.26471C46.7589 4.26471 48.5107 6.27597 48.5107 9.37667C48.5107 9.66998 48.5107 9.85854 48.4901 9.94234H40.8437C40.9468 12.0374 42.1422 13.3154 44.1001 13.3154C45.5016 13.3154 46.5734 12.5821 47.2947 11.0946ZM43.9146 5.7522C42.2658 5.7522 41.1117 6.79974 40.885 8.53864H46.7382C46.594 6.67403 45.6459 5.7522 43.9146 5.7522Z" fill="black"/>
<path d="M52.9609 14.5724H51.2915V0.0117188H53.1876L61.0195 11.807V0.0117188H62.6889V14.5724H60.7928L52.9609 2.77721V14.5724Z" fill="black"/>
<path d="M73.46 11.0946L74.779 11.9327C73.8103 13.8601 72.3058 14.8238 70.2654 14.8238C68.8021 14.8238 67.6067 14.321 66.6586 13.3363C65.6899 12.3517 65.2159 11.0737 65.2159 9.54428C65.2159 7.99393 65.6693 6.71594 66.5968 5.73125C67.5242 4.74657 68.6784 4.26471 70.1005 4.26471C72.9241 4.26471 74.676 6.27597 74.676 9.37667C74.676 9.66998 74.676 9.85854 74.6554 9.94234H67.009C67.112 12.0374 68.3074 13.3154 70.2654 13.3154C71.6669 13.3154 72.7386 12.5821 73.46 11.0946ZM70.0799 5.7522C68.4311 5.7522 67.2769 6.79974 67.0502 8.53864H72.9035C72.7592 6.67403 71.8112 5.7522 70.0799 5.7522Z" fill="black"/>
<path d="M80.3009 14.8238C78.4254 14.8238 77.498 13.7344 77.498 11.5765V6.02456H75.8698V4.51611H77.498L77.8483 1.52017H79.2086V4.51611H83.207V6.02456H79.2086V11.6184C79.2086 12.7078 79.6002 13.2525 80.3628 13.2525C81.0841 13.2525 81.723 12.624 82.2795 11.346L83.681 12.0165C83.0009 13.7135 81.723 14.8238 80.3009 14.8238Z" fill="black"/>
<path d="M89.0511 14.8238C87.7939 14.8238 86.7221 14.5096 85.8771 13.902C85.0321 13.2944 84.5993 12.4145 84.5787 11.2622L86.1657 10.9689C86.3099 12.5821 87.2992 13.3783 89.0923 13.3783C90.3907 13.3783 91.2564 12.8335 91.2564 11.765C91.2564 10.927 90.8236 10.5918 89.5251 10.3614L88.3709 10.1728C86.3099 9.77473 85.0733 9.10431 85.0733 7.1559C85.0733 5.39604 86.5779 4.26471 88.9686 4.26471C91.2976 4.26471 92.6579 5.41699 92.967 7.17685L91.4212 7.59586C91.1945 6.50643 90.3907 5.7103 88.9068 5.7103C87.5259 5.7103 86.7428 6.23407 86.7428 7.13495C86.7428 8.03583 87.2374 8.39199 88.6389 8.62245L89.8137 8.83195C91.8128 9.18812 93.0288 9.87949 93.0288 11.7441C93.0288 13.6716 91.38 14.8238 89.0511 14.8238Z" fill="black"/>
</svg>
