<svg width="35" height="34" viewBox="0 0 35 34" fill="none" xmlns="http://www.w3.org/2000/svg">
<g clip-path="url(#clip0_28002_2227)">
<g clip-path="url(#clip1_28002_2227)">
<g clip-path="url(#clip2_28002_2227)">
<path d="M7.94727 12.75C7.66547 12.75 7.39522 12.6381 7.19596 12.4388C6.99671 12.2395 6.88477 11.9693 6.88477 11.6875V7.4375C6.88477 7.15571 6.99671 6.88546 7.19596 6.6862C7.39522 6.48694 7.66547 6.375 7.94727 6.375H12.1973C12.4791 6.375 12.7493 6.48694 12.9486 6.6862C13.1478 6.88546 13.2598 7.15571 13.2598 7.4375V11.6875C13.2598 11.9693 13.1478 12.2395 12.9486 12.4388C12.7493 12.6381 12.4791 12.75 12.1973 12.75H7.94727ZM11.1348 10.625V8.5H9.00977V10.625H11.1348ZM7.94727 27.625C7.66547 27.625 7.39522 27.5131 7.19596 27.3138C6.99671 27.1145 6.88477 26.8443 6.88477 26.5625V22.3125C6.88477 22.0307 6.99671 21.7605 7.19596 21.5612C7.39522 21.3619 7.66547 21.25 7.94727 21.25H12.1973C12.4791 21.25 12.7493 21.3619 12.9486 21.5612C13.1478 21.7605 13.2598 22.0307 13.2598 22.3125V26.5625C13.2598 26.8443 13.1478 27.1145 12.9486 27.3138C12.7493 27.5131 12.4791 27.625 12.1973 27.625H7.94727ZM11.1348 25.5V23.375H9.00977V25.5H11.1348ZM22.8223 12.75C22.5405 12.75 22.2702 12.6381 22.071 12.4388C21.8717 12.2395 21.7598 11.9693 21.7598 11.6875V7.4375C21.7598 7.15571 21.8717 6.88546 22.071 6.6862C22.2702 6.48694 22.5405 6.375 22.8223 6.375H27.0723C27.3541 6.375 27.6243 6.48694 27.8236 6.6862C28.0228 6.88546 28.1348 7.15571 28.1348 7.4375V11.6875C28.1348 11.9693 28.0228 12.2395 27.8236 12.4388C27.6243 12.6381 27.3541 12.75 27.0723 12.75H22.8223ZM26.0098 10.625V8.5H23.8848V10.625H26.0098ZM16.4473 21.25C16.1655 21.25 15.8952 21.1381 15.696 20.9388C15.4967 20.7395 15.3848 20.4693 15.3848 20.1875V19.125H7.94727C7.66547 19.125 7.39522 19.0131 7.19596 18.8138C6.99671 18.6145 6.88477 18.3443 6.88477 18.0625C6.88477 17.7807 6.99671 17.5105 7.19596 17.3112C7.39522 17.1119 7.66547 17 7.94727 17H16.4473C16.7291 17 16.9993 17.1119 17.1986 17.3112C17.3978 17.5105 17.5098 17.7807 17.5098 18.0625V20.1875C17.5098 20.4693 17.3978 20.7395 17.1986 20.9388C16.9993 21.1381 16.7291 21.25 16.4473 21.25ZM20.6973 27.625C20.4155 27.625 20.1452 27.5131 19.946 27.3138C19.7467 27.1145 19.6348 26.8443 19.6348 26.5625V20.1875C19.6348 19.9057 19.7467 19.6355 19.946 19.4362C20.1452 19.2369 20.4155 19.125 20.6973 19.125C20.9791 19.125 21.2493 19.2369 21.4486 19.4362C21.6478 19.6355 21.7598 19.9057 21.7598 20.1875V25.5H26.0098V21.25H24.9473C24.6655 21.25 24.3952 21.1381 24.196 20.9388C23.9967 20.7395 23.8848 20.4693 23.8848 20.1875C23.8848 19.9057 23.9967 19.6355 24.196 19.4362C24.3952 19.2369 24.6655 19.125 24.9473 19.125H27.0723C27.3541 19.125 27.6243 19.2369 27.8236 19.4362C28.0228 19.6355 28.1348 19.9057 28.1348 20.1875V26.5625C28.1348 26.8443 28.0228 27.1145 27.8236 27.3138C27.6243 27.5131 27.3541 27.625 27.0723 27.625H20.6973ZM16.4473 27.625C16.1655 27.625 15.8952 27.5131 15.696 27.3138C15.4967 27.1145 15.3848 26.8443 15.3848 26.5625V24.4375C15.3848 24.1557 15.4967 23.8855 15.696 23.6862C15.8952 23.4869 16.1655 23.375 16.4473 23.375C16.7291 23.375 16.9993 23.4869 17.1986 23.6862C17.3978 23.8855 17.5098 24.1557 17.5098 24.4375V26.5625C17.5098 26.8443 17.3978 27.1145 17.1986 27.3138C16.9993 27.5131 16.7291 27.625 16.4473 27.625ZM16.4473 14.875C16.1655 14.875 15.8952 14.7631 15.696 14.5638C15.4967 14.3645 15.3848 14.0943 15.3848 13.8125V7.4375C15.3848 7.15571 15.4967 6.88546 15.696 6.6862C15.8952 6.48694 16.1655 6.375 16.4473 6.375C16.7291 6.375 16.9993 6.48694 17.1986 6.6862C17.3978 6.88546 17.5098 7.15571 17.5098 7.4375V12.75H18.5723C18.8541 12.75 19.1243 12.8619 19.3236 13.0612C19.5228 13.2605 19.6348 13.5307 19.6348 13.8125C19.6348 14.0943 19.5228 14.3645 19.3236 14.5638C19.1243 14.7631 18.8541 14.875 18.5723 14.875H16.4473ZM22.8223 17C22.5405 17 22.2702 16.8881 22.071 16.6888C21.8717 16.4895 21.7598 16.2193 21.7598 15.9375C21.7598 15.6557 21.8717 15.3855 22.071 15.1862C22.2702 14.9869 22.5405 14.875 22.8223 14.875H27.0723C27.3541 14.875 27.6243 14.9869 27.8236 15.1862C28.0228 15.3855 28.1348 15.6557 28.1348 15.9375C28.1348 16.2193 28.0228 16.4895 27.8236 16.6888C27.6243 16.8881 27.3541 17 27.0723 17H22.8223ZM1.57227 9.5625C1.29047 9.5625 1.02022 9.45056 0.820965 9.2513C0.621707 9.05204 0.509766 8.78179 0.509766 8.5L0.509766 3.1875C0.510516 2.34235 0.846582 1.53204 1.44419 0.934426C2.0418 0.336816 2.85212 0.000750242 3.69727 0L9.00977 0C9.29156 0 9.56181 0.111942 9.76107 0.311199C9.96032 0.510456 10.0723 0.780707 10.0723 1.0625C10.0723 1.34429 9.96032 1.61454 9.76107 1.8138C9.56181 2.01306 9.29156 2.125 9.00977 2.125H3.69727C3.41547 2.125 3.14522 2.23694 2.94596 2.4362C2.74671 2.63546 2.63477 2.90571 2.63477 3.1875V8.5C2.63477 8.78179 2.52282 9.05204 2.32357 9.2513C2.12431 9.45056 1.85406 9.5625 1.57227 9.5625ZM33.4473 9.5625C33.1655 9.5625 32.8952 9.45056 32.696 9.2513C32.4967 9.05204 32.3848 8.78179 32.3848 8.5V3.1875C32.3848 2.90571 32.2728 2.63546 32.0736 2.4362C31.8743 2.23694 31.6041 2.125 31.3223 2.125H26.0098C25.728 2.125 25.4577 2.01306 25.2585 1.8138C25.0592 1.61454 24.9473 1.34429 24.9473 1.0625C24.9473 0.780707 25.0592 0.510456 25.2585 0.311199C25.4577 0.111942 25.728 0 26.0098 0L31.3223 0C32.1674 0.000750242 32.9777 0.336816 33.5753 0.934426C34.1729 1.53204 34.509 2.34235 34.5098 3.1875V8.5C34.5098 8.78179 34.3978 9.05204 34.1986 9.2513C33.9993 9.45056 33.7291 9.5625 33.4473 9.5625ZM26.0098 34C25.728 34 25.4577 33.8881 25.2585 33.6888C25.0592 33.4895 24.9473 33.2193 24.9473 32.9375C24.9473 32.6557 25.0592 32.3855 25.2585 32.1862C25.4577 31.9869 25.728 31.875 26.0098 31.875H31.3223C31.6041 31.875 31.8743 31.7631 32.0736 31.5638C32.2728 31.3645 32.3848 31.0943 32.3848 30.8125V25.5C32.3848 25.2182 32.4967 24.948 32.696 24.7487C32.8952 24.5494 33.1655 24.4375 33.4473 24.4375C33.7291 24.4375 33.9993 24.5494 34.1986 24.7487C34.3978 24.948 34.5098 25.2182 34.5098 25.5V30.8125C34.509 31.6576 34.1729 32.468 33.5753 33.0656C32.9777 33.6632 32.1674 33.9992 31.3223 34H26.0098ZM3.69727 34C2.85212 33.9992 2.0418 33.6632 1.44419 33.0656C0.846582 32.468 0.510516 31.6576 0.509766 30.8125L0.509766 25.5C0.509766 25.2182 0.621707 24.948 0.820965 24.7487C1.02022 24.5494 1.29047 24.4375 1.57227 24.4375C1.85406 24.4375 2.12431 24.5494 2.32357 24.7487C2.52282 24.948 2.63477 25.2182 2.63477 25.5V30.8125C2.63477 31.399 3.11077 31.875 3.69727 31.875H9.00977C9.29156 31.875 9.56181 31.9869 9.76107 32.1862C9.96032 32.3855 10.0723 32.6557 10.0723 32.9375C10.0723 33.2193 9.96032 33.4895 9.76107 33.6888C9.56181 33.8881 9.29156 34 9.00977 34H3.69727Z" fill="black"/>
</g>
</g>
</g>
<defs>
<clipPath id="clip0_28002_2227">
<rect width="34" height="34" fill="white" transform="translate(0.509766)"/>
</clipPath>
<clipPath id="clip1_28002_2227">
<rect width="34" height="34" fill="white" transform="translate(0.509766)"/>
</clipPath>
<clipPath id="clip2_28002_2227">
<rect width="34" height="34" fill="white" transform="translate(0.509766)"/>
</clipPath>
</defs>
</svg>
