<svg width="42" height="28" viewBox="0 0 42 28" fill="none" xmlns="http://www.w3.org/2000/svg">
<path d="M25.7647 21.1775C26.4954 22.2587 27.4853 22.3552 28.6968 22.6599C29.2926 22.8101 29.8726 22.8241 30.4229 23.0535C30.9199 23.2613 31.3289 23.976 31.8083 23.9428C31.7907 23.2571 30.9714 22.6879 30.9941 21.9208C31.0094 21.3919 31.6771 20.3393 32.1579 20.256C31.85 19.8024 31.4355 19.4523 30.9204 19.3086C30.8281 18.2953 31.3196 17.6157 31.3789 16.5607C31.6979 16.3262 31.6015 15.8395 31.7531 15.4566C31.9149 15.0485 32.5413 14.1826 33.0133 14.0188C33.9206 13.7038 34.3736 14.6029 35.2202 14.4166C35.7075 14.3094 36.5759 13.2577 36.8749 12.8669C37.3617 12.2304 37.4438 11.54 37.0335 10.7247C36.644 9.95096 36.032 9.89246 36.3385 8.85574C36.466 8.42186 36.7043 8.24681 36.7785 7.74366C36.8253 7.42726 36.6297 6.80335 36.7715 6.53235C36.9463 6.1991 38.3952 5.30701 38.7035 5.14928C39.1667 4.91291 40.0189 5.01775 40.3824 4.6026C40.7236 4.21271 40.4746 3.52422 41.0778 3.46852C41.2345 2.49498 41.3555 2.68595 42 2.20339C41.4826 2.05736 41.005 1.93192 40.5187 1.74471C40.2414 1.63799 40.2215 1.44796 39.8988 1.35108C39.5691 1.25232 39.2131 1.3801 38.889 1.25841L38.7629 1.51209L38.7745 1.41473C38.6794 1.56498 38.8612 1.54111 38.8918 1.62161C38.9247 1.70773 38.8324 1.821 38.8278 1.90291C38.825 1.97826 38.8602 2.03255 38.8616 2.092C38.8653 2.23288 38.831 2.43788 38.7605 2.55817C38.519 2.97192 38.3053 2.31666 38.143 2.21088C37.907 2.05689 37.5713 2.0377 37.301 2.07608C36.5675 2.18046 35.9537 2.7716 35.1836 2.67144L34.846 2.68688C35.2318 2.35691 34.4121 1.96516 34.4371 2.64757C33.7644 2.3761 33.0443 2.64991 32.4189 2.92231C32.7124 3.22607 31.8709 3.50362 31.6849 3.57196C31.7967 3.67399 31.8593 3.81956 31.8574 3.97167C31.1332 4.03767 30.5824 3.89866 30.218 3.41095C30.3742 3.0103 30.8666 2.95273 31.2283 2.86755C30.8583 2.37095 30.1531 2.10182 29.619 2.50856C29.8874 2.73556 29.7706 3.35806 29.619 3.62017C30.1039 3.69318 30.071 4.85581 29.5058 4.55767C29.3357 4.4678 29.2703 4.19961 29.0686 4.17246C28.8141 4.13783 28.6833 4.43738 28.5224 4.57217C28.0838 4.93866 27.4394 4.8647 27.0036 5.24195C27.2697 5.42589 27.5488 5.64775 27.6397 5.97491C26.979 6.12609 26.4987 5.34071 25.8375 5.51108C24.9895 5.72872 26.3716 6.28476 26.0397 6.81693C25.5565 6.44998 24.977 6.23842 24.3882 6.12188C24.5096 5.80314 24.257 5.49984 24.1063 5.24148C24.1499 5.25927 24.1921 5.27892 24.2329 5.30092C24.1874 5.28735 24.1452 5.26769 24.1063 5.24148C24.2287 5.0889 24.2959 4.90308 24.3882 4.73225C23.7618 4.96018 22.9031 4.45142 22.8735 3.75918C23.8193 3.99835 24.7596 4.31428 25.7253 4.46452C26.5733 4.59651 27.2029 4.18089 27.9512 3.85419C27.546 3.05477 26.5395 2.86287 25.8306 2.44163C25.3743 2.17063 24.951 1.89214 24.4104 1.83831C24.1596 1.81351 23.9037 1.81913 23.676 1.94035C23.4901 2.03911 23.364 2.21556 23.1526 2.26939C23.4637 2.17999 23.128 1.96001 23.0812 1.81632C23.0279 1.65624 23.0469 1.38571 23.2819 1.48213C23.2555 1.41614 23.236 1.34687 23.1911 1.29023C23.2193 1.3567 23.2476 1.41848 23.2819 1.48213C23.2156 1.09319 22.6727 1.27572 22.4214 1.30427C21.9147 1.36184 21.3588 1.3127 20.9466 0.979919C21.2238 1.35389 21.254 0.674752 20.9466 0.979919C21.088 0.904095 22.6185 1.03187 22.0357 0.488938C21.7399 0.213727 21.1195 0.569442 20.813 0.669136C20.8933 0.557741 20.9545 0.43324 20.9939 0.301719C20.5961 0.280189 20.3188 0.635905 19.9409 0.697219C20.3457 0.388776 19.3832 0.683646 19.2886 0.70658C18.9376 0.791764 18.6019 0.606886 18.2584 0.685518C17.9631 0.753384 17.7039 1.16293 17.3775 0.986004C17.2996 1.24062 17.071 1.40865 16.8322 1.49617C16.8434 1.41614 16.8035 1.33891 16.8169 1.25794C16.0334 1.52472 15.3004 1.95111 14.4769 2.092C14.5989 2.34334 14.9035 2.24832 15.1144 2.19169C15.0996 2.25628 15.0964 2.32415 15.0644 2.38406C15.0848 2.32134 15.0982 2.25628 15.1144 2.19169C14.9791 2.52868 14.6119 2.5811 14.3601 2.79032C14.1468 2.96724 14.0184 3.36602 13.6934 3.34636C13.1004 3.89866 12.8245 4.4547 12.5491 5.14928C12.2737 5.56631 11.5857 5.98334 11.224 6.21174C11.0409 6.30863 10.6454 6.44436 10.861 6.72285C10.9811 6.59554 11.4141 6.13264 11.5783 6.36152C11.7656 6.62316 10.9723 7.07529 10.9371 6.96108C10.8522 7.06967 10.6148 7.16562 10.6222 6.9564C10.3918 7.18856 10.1623 7.42211 9.93513 7.658C9.46871 7.05142 8.33418 8.28191 8.86597 8.70783C8.61978 8.85433 8.04301 9.67295 8.69443 9.37527C8.83723 9.31021 9.20814 9.00785 9.04679 9.35748C8.96844 9.52598 8.64157 9.70197 8.48069 9.78106C8.61561 9.85174 8.63879 9.99917 8.51453 10.0998C8.64992 10.1326 9.04077 10.3474 8.7343 10.4452C9.03103 10.7106 8.30961 10.9283 8.14455 10.9872C9.10799 11.5433 10.485 11.4043 10.8976 10.1532C10.8976 10.1532 11.0353 10.0142 11.2213 10.0071C11.1336 10.2037 11.1693 10.5749 11.4484 10.5702C11.435 10.6034 11.4225 10.6371 11.4114 10.6708C11.4262 10.6371 11.4378 10.6025 11.4461 10.5665C11.4484 11.6818 11.7234 12.9324 12.6868 13.4885C13.3753 13.2105 14.202 12.9324 14.4769 12.0984C14.6142 11.6814 14.2015 11.1258 14.6142 10.7088C14.7519 10.5697 15.0277 10.7088 15.3523 10.6507C15.2832 10.6119 15.2341 10.5468 15.1659 10.507C15.7005 10.5 15.3759 9.91212 15.2364 9.67107C14.9155 9.11176 14.6295 8.96011 14.6745 8.29268C14.757 8.36429 14.7653 8.03431 14.6986 8.12137C14.9383 7.702 15.1246 7.5761 15.5387 7.38841C15.8516 7.24659 16.1062 7.01772 16.3245 6.75468C16.7798 6.20753 17.0733 5.35896 17.7382 5.06035C18.1383 4.88062 18.6604 4.6611 18.9877 5.08C19.1945 5.34445 19.1866 5.68145 19.0563 5.97865C18.7086 6.77808 17.6552 7.08512 17.0668 7.67907C17.0367 7.63507 16.9913 7.74085 16.969 7.69124C17.2296 8.24962 16.8308 8.75323 17.1939 9.28634L17.1786 9.23205C17.2611 9.39352 17.416 9.6238 17.5773 9.67997C17.658 9.70805 17.6928 9.7029 17.7456 9.7366C17.8022 9.77311 17.7535 9.83114 17.8495 9.84051L17.8402 9.85408C19.1439 9.45905 20.7342 9.08742 21.91 10.0146C21.6068 10.1279 21.7468 9.67341 21.91 10.0146C20.7073 10.5501 19.2079 9.97577 18.1133 10.8248C18.1916 10.7635 18.1054 11.0954 18.1253 10.998C17.74 11.3767 19.5914 11.7675 18.6975 12.2102C18.2449 12.4344 17.7336 11.862 17.2769 11.9837C16.4687 12.1995 17.4299 13.7375 16.5211 13.9832C16.2026 13.8522 15.5827 14.3633 15.5827 14.3633C14.8965 14.0993 14.5873 14.3754 13.9572 14.6595C13.724 14.7648 13.488 14.8444 13.2316 14.7911C12.9548 14.7335 12.6113 14.6764 12.5079 14.4222C12.398 14.1512 11.428 14.6928 11.428 14.6928C11.2811 14.9942 11.0845 14.3099 11.0256 14.2448C10.7544 13.9467 10.4261 14.0553 10.6056 13.6312C10.7071 13.3921 10.8759 12.9657 11.1749 12.9521C11.1448 12.9404 11.1142 12.9278 11.084 12.9142C11.1156 12.924 11.1462 12.9362 11.1749 12.9521C10.4655 12.6596 11.2848 12.0216 10.8972 11.8208C10.6218 12.3769 10.071 12.7934 9.65787 13.2105C9.65787 13.3495 9.65787 13.4885 9.70238 13.6097C9.6435 13.5578 9.57952 13.5058 9.54752 13.4314C9.94347 13.6837 9.90731 14.1751 10.2045 14.4868C10.2847 14.5706 10.7558 14.756 10.6848 14.9104C10.612 15.0695 9.73808 14.7143 9.9342 15.1823C9.66575 14.9909 9.1831 14.9975 9.15065 15.4145C8.66429 15.1898 8.04023 15.3522 7.76761 15.8301C7.69204 15.963 7.46114 16.6314 7.82696 16.4849C7.79682 16.5191 7.76297 16.5495 7.72542 16.5762C7.75787 16.5444 7.79218 16.5139 7.82696 16.4849C6.76754 16.4072 6.35444 17.5188 5.52869 18.0749C4.97789 18.3529 4.56525 18.2139 4.07194 18.1184C4.28197 18.3295 4.47159 18.5836 4.52028 18.8865C4.00193 18.8359 2.66201 18.2696 2.69446 19.2572C2.77282 19.2375 2.85164 19.2286 2.91979 19.1813C2.84236 19.201 2.76865 19.2272 2.69446 19.2572C3.28282 19.1898 3.77474 19.5923 4.30329 19.7762C3.70242 19.7664 4.51054 20.3931 4.60512 20.49C4.73123 20.6182 5.01034 21.3512 4.70295 21.2716C4.7011 21.3269 4.69229 21.369 4.70341 21.4242C4.70481 21.3732 4.70434 21.3226 4.70295 21.2716C4.5328 22.2475 3.51047 22.5939 2.63975 22.5756C1.85017 22.5583 0.715648 22.0884 0.139343 22.8798C0.598811 23.1635 0.631265 23.8389 0.490782 24.3088C0.34149 24.8077 -0.239914 25.3825 0.110598 25.9203C0.156035 25.873 0.221408 25.8547 0.262208 25.8028C0.296981 26.136 0.15928 26.6921 0.572383 26.8311C1.12319 26.9701 1.53629 27.1086 2.08709 27.2481C3.60181 27.5261 5.11605 26.6921 5.25329 25.0244C5.25329 24.4684 6.07903 24.3294 6.4926 23.9128C6.768 23.6348 6.768 23.3568 6.768 23.0792C6.768 22.8012 7.04341 22.5232 7.18111 22.5232C8.28271 22.6622 9.24616 22.1062 10.3478 21.9671C10.4855 21.8281 10.6232 22.2452 10.6505 22.5246C10.5457 22.3917 10.4975 22.2194 10.5253 22.0514C11.2848 23.7892 14.3782 23.9591 14.0281 26.3176C14.0407 26.2657 14.0522 26.2123 14.0601 26.1594C14.0444 26.2109 14.0332 26.2638 14.0281 26.3176C14.4867 25.9703 14.5108 25.3432 14.2025 24.8854C14.553 24.7553 15.0681 24.6308 15.3032 25.0244C15.3347 24.3266 14.5697 24.0214 14.023 23.8557C14.0648 23.7584 14.0917 23.6545 14.1032 23.5487C13.277 23.6072 12.6738 22.9074 12.3131 22.24C12.1439 21.926 11.6928 21.0208 12.334 20.9398C13.0081 20.8541 13.82 22.943 14.4338 22.3069C14.1255 22.4492 14.5752 22.6032 14.4338 22.3069C14.4718 22.4366 14.4371 22.5686 14.3402 22.6613C14.432 22.5686 14.5233 22.4759 14.6151 22.3832C15.6806 23.8655 16.4029 26.137 18.4693 26.4136C17.7164 26.2769 18.3219 26.0696 18.4693 26.4136C18.4693 25.8575 17.919 25.441 17.7818 24.8849C17.7818 24.7459 17.9195 24.6069 17.9334 24.4356C17.913 24.4862 17.893 24.5367 17.8713 24.5868C17.8893 24.5353 17.9097 24.4852 17.9334 24.4356C17.6682 24.7534 18.1879 24.5573 18.2983 24.5128C18.7684 24.3238 19.2858 24.3532 19.749 24.1576C19.4142 24.3883 20.0434 24.3659 20.164 24.3579C20.6216 24.327 21.1826 24.2901 21.5414 23.9676C21.0871 23.9072 20.5284 23.6362 20.501 23.1106C20.4848 22.8059 20.6795 22.5503 20.8066 22.2906C20.9614 21.9742 21.0681 21.6367 21.2224 21.3203C21.3639 21.6091 21.4927 21.1532 21.5521 21.0446C21.738 20.7034 22.0565 20.4769 22.2921 20.1745C22.3162 20.1979 22.3393 20.2223 22.3607 20.248C22.4863 19.9873 22.8206 19.9784 23.0552 20.0772C22.9875 20.1226 22.9472 20.1984 22.879 20.2443C24.0502 20.5265 25.0813 19.7893 26.2052 19.6274C26.4338 19.5946 27.0532 19.5712 26.852 19.9985C26.7235 20.2709 26.265 20.1858 26.0485 20.3482C26.1491 20.3748 26.252 20.3912 26.3563 20.3983C26.0786 20.6103 25.9669 20.9964 25.6326 21.1392C25.6859 21.1729 25.7323 21.2164 25.7939 21.2361C25.7425 21.2 25.6868 21.171 25.6326 21.1392" fill="#BAC2D8" fill-opacity="0.99"/>
</svg>
