<svg width="41" height="27" viewBox="0 0 41 27" fill="none" xmlns="http://www.w3.org/2000/svg">
<path d="M39.2156 12.4687C39.2408 12.4515 39.2748 12.4128 39.2912 12.3834C39.3071 12.3536 39.3504 12.299 39.3861 12.2621C39.4226 12.2251 39.4869 12.1978 39.5293 12.2012C39.5717 12.2045 39.6167 12.1974 39.6293 12.1848L39.675 12.1487L39.7406 12.1352L39.8015 12.126C39.8115 12.1205 39.8498 12.118 39.8867 12.1205C39.9241 12.1235 40.0568 12.0495 40.1824 11.9563C40.308 11.8631 40.4121 11.7753 40.4138 11.761L40.3974 11.7169L40.3533 11.6955L40.3584 11.6741L40.3668 11.6363C40.3554 11.6253 40.305 11.6069 40.2551 11.5951C40.2051 11.5833 40.1807 11.5728 40.2009 11.572L40.2601 11.5607L40.3223 11.5065L40.3617 11.4309L40.3487 11.3717L40.3634 11.3238L40.3979 11.2667L40.3815 11.2058L40.3386 11.1461C40.3277 11.1264 40.2643 11.0898 40.1975 11.0659C40.1307 11.042 40.0488 11.0268 40.0152 11.0331C39.9816 11.0399 39.9388 11.0609 39.9195 11.081L39.8544 11.1234L39.8178 11.0974L39.8523 11.0285L39.8997 10.9626L39.8951 10.9034L39.851 10.8425C39.8338 10.8257 39.7775 10.8063 39.7259 10.7996C39.6746 10.7929 39.6175 10.7908 39.5994 10.7946C39.5814 10.7984 39.455 10.8668 39.3185 10.947C39.1828 11.0277 39.045 11.1012 39.0131 11.1117C38.982 11.1213 38.9463 11.1457 38.9342 11.1659C38.9228 11.1856 38.8804 11.2158 38.8405 11.2331C38.8006 11.2499 38.7657 11.257 38.7632 11.2478L38.7746 11.21L38.7909 11.1717L38.7632 11.1276L38.7107 11.0898L38.6649 11.0588L38.6175 11.0294L38.591 11.0096L38.6057 11.0004C38.6145 11.0012 38.6624 11.0218 38.7132 11.0457C38.7632 11.0705 38.8174 11.0898 38.8325 11.0898L38.8602 11.0621C38.8602 11.047 38.9211 11.0193 38.9946 11.0012C39.069 10.9836 39.1253 10.9517 39.1194 10.9311L39.1211 10.887C39.1278 10.8828 39.2618 10.8404 39.4201 10.7912C39.578 10.7425 39.7246 10.6917 39.7448 10.6778L39.7758 10.6203C39.7725 10.6022 39.7343 10.5711 39.6923 10.5514C39.6498 10.5312 39.5553 10.5077 39.4823 10.4989C39.4088 10.4901 39.3357 10.4691 39.3197 10.4531L39.2819 10.3973C39.2773 10.3826 39.2462 10.3624 39.213 10.3527C39.1794 10.3431 39.1479 10.3401 39.1425 10.3464C39.1366 10.3523 39.0837 10.3876 39.024 10.4237C38.9644 10.4594 38.9367 10.4682 38.9623 10.4435L39.0051 10.3544L38.9888 10.3007L38.9753 10.2855L38.9459 10.2788L38.9018 10.2969L38.8577 10.338L38.8199 10.3133L38.7741 10.3007L38.6939 10.3511L38.6561 10.338C38.6586 10.32 38.6805 10.2809 38.7032 10.2511C38.7271 10.2217 38.7464 10.1726 38.7464 10.1427C38.7464 10.1133 38.7313 10.0852 38.712 10.081L38.6448 10.0558L38.5956 10.0163L38.5394 9.97851L38.5003 9.94743L38.4722 9.90669L38.4033 9.87729L38.3554 9.82605L38.3247 9.77901L38.2785 9.77397L38.2311 9.76893L38.1966 9.75927L38.2147 9.75087L38.2344 9.71475L38.187 9.63117L38.1 9.56019L38.0211 9.50601L38.0194 9.46317L38.0849 9.46653L38.1341 9.50433L38.1836 9.50979L38.2374 9.47199L38.2953 9.44091L38.3642 9.39471L38.3739 9.33381C38.3621 9.32037 38.3205 9.28551 38.2819 9.25653C38.2428 9.22797 38.2042 9.18975 38.1962 9.17295L38.1651 9.12885L38.1143 9.11583C38.0954 9.11583 38.1076 9.09651 38.1425 9.07299C38.1765 9.04947 38.1996 9.01167 38.1929 8.98941L38.1425 8.92389L38.0681 8.89911L38.0433 8.88147V8.82561C38.0379 8.80461 37.9791 8.78907 37.9123 8.79075C37.8455 8.79243 37.8115 8.78655 37.8367 8.77773L37.914 8.73027L37.9451 8.68407L37.9354 8.63829C37.9299 8.62065 37.898 8.60259 37.8648 8.59713C37.8312 8.59167 37.7981 8.58369 37.7909 8.57907L37.7993 8.55093C37.8107 8.54043 37.8207 8.50389 37.8207 8.47071C37.8207 8.43711 37.7989 8.40855 37.7733 8.40645L37.7258 8.36865L37.7027 8.31111L37.6729 8.26995L37.6666 8.23509L37.6317 8.20065L37.5683 8.14815L37.5087 8.09229L37.4776 8.04651L37.4684 8.01039L37.4486 7.98897L37.4285 7.94319L37.394 7.89069L37.376 7.83987L37.365 7.79367L37.3025 7.77603C37.2789 7.77225 37.2592 7.72353 37.2584 7.66767C37.2575 7.61181 37.2449 7.55385 37.2306 7.53831L37.1765 7.51689L37.1731 7.54629V7.59039L37.1336 7.65003L37.0975 7.70589C37.0862 7.71555 37.0685 7.75839 37.0597 7.80123C37.0509 7.84365 37.0257 7.87851 37.0038 7.87851L36.9362 7.91967L36.9383 7.98687L36.9858 8.03769C36.9954 8.05113 36.9719 8.09103 36.9333 8.12631C36.8942 8.16159 36.8778 8.21451 36.8972 8.24475C36.9156 8.27457 36.9173 8.30565 36.9005 8.31363L36.8316 8.33463L36.7938 8.35269L36.7556 8.38587L36.7279 8.43333L36.7674 8.48919L36.7791 8.56143L36.7392 8.62737L36.7182 8.60091L36.7098 8.52531L36.6897 8.47953L36.6519 8.43669L36.6027 8.41359C36.5906 8.41359 36.562 8.45097 36.5406 8.49591C36.5192 8.54085 36.4868 8.58411 36.4683 8.59125L36.3944 8.60427C36.3717 8.60427 36.3268 8.62569 36.2945 8.65215C36.2621 8.67861 36.2176 8.70339 36.1962 8.70801H36.1155L36.0504 8.72439L36.0391 8.70129C36.0462 8.67525 36.0454 8.62947 36.037 8.59965C36.029 8.56983 36.0093 8.54967 35.9929 8.55555C35.9769 8.56101 35.953 8.60301 35.9404 8.64879C35.9282 8.69499 35.9072 8.75211 35.8946 8.77521C35.8824 8.79873 35.8089 8.84745 35.7321 8.88357C35.6552 8.91969 35.6527 8.91423 35.7254 8.87181C35.7989 8.82897 35.8644 8.78739 35.8719 8.77815C35.8791 8.76933 35.8942 8.73153 35.906 8.69457C35.9177 8.65761 35.9135 8.58957 35.8963 8.54379C35.8795 8.49801 35.8476 8.44131 35.8257 8.41905C35.8039 8.39679 35.7325 8.38041 35.667 8.38293C35.6006 8.38587 35.5095 8.41611 35.465 8.45013C35.42 8.48457 35.3616 8.50137 35.3348 8.48793L35.2613 8.43669L35.2659 8.41065L35.3201 8.37285L35.3629 8.34849L35.4175 8.37495H35.4734L35.4981 8.34009L35.5158 8.28087L35.5305 8.21997L35.5422 8.17041L35.5128 8.13933L35.4356 8.08683L35.4175 8.02761L35.4435 7.99317L35.4402 7.92765L35.4091 7.86507C35.3982 7.85457 35.2953 7.83231 35.1806 7.81593C35.0664 7.79955 35.0382 7.79283 35.1189 7.80081C35.1987 7.80921 35.2831 7.80543 35.3058 7.79283L35.3679 7.77015C35.3793 7.77015 35.3986 7.73907 35.4108 7.70085C35.4221 7.66305 35.4209 7.61055 35.407 7.58451L35.3944 7.49085L35.4435 7.39257L35.4763 7.29891L35.4515 7.24473L35.3793 7.26405L35.2953 7.28715L35.2541 7.25943L35.223 7.22625L35.1689 7.21995L35.1017 7.22835L35.0261 7.21197L34.9488 7.19055C34.929 7.18803 34.8757 7.16787 34.8308 7.14645C34.7858 7.12461 34.7316 7.09059 34.7111 7.07085L34.6602 7.00869L34.6552 6.95283L34.6636 6.89865C34.6636 6.88479 34.6317 6.87177 34.593 6.86883C34.554 6.86631 34.5179 6.85287 34.5124 6.83943L34.5032 6.78525C34.5032 6.76887 34.4763 6.74871 34.4435 6.73947C34.4108 6.73023 34.3767 6.73569 34.3662 6.75081L34.3205 6.77685L34.3125 6.74913C34.323 6.73485 34.3289 6.69159 34.3251 6.65379C34.3213 6.61599 34.2982 6.58449 34.2726 6.58449C34.2474 6.58449 34.1714 6.55047 34.1037 6.50931C34.0361 6.46815 33.9651 6.42867 33.9462 6.42237C33.9269 6.41607 33.8509 6.44631 33.777 6.48957C33.7035 6.53325 33.6388 6.57189 33.6346 6.57651C33.63 6.58113 33.5981 6.57231 33.564 6.55719C33.5296 6.54165 33.4511 6.52821 33.3897 6.52779C33.3284 6.52695 33.2616 6.53241 33.2423 6.54039L33.2125 6.52779C33.2159 6.51225 33.1323 6.47067 33.0256 6.43581C32.9189 6.40053 32.7786 6.36945 32.7135 6.36693C32.6489 6.36441 32.5741 6.37071 32.5476 6.38163L32.4573 6.43581L32.3901 6.51645C32.3767 6.54165 32.367 6.59331 32.3687 6.63111C32.3704 6.66891 32.3805 6.72435 32.3918 6.75417C32.4023 6.78399 32.4216 6.81843 32.4347 6.83145L32.4821 6.86757L32.5233 6.89697L32.538 6.93939L32.5119 6.99861C32.4985 7.01709 32.4872 7.06035 32.4872 7.09563C32.4872 7.13091 32.4632 7.18929 32.4347 7.22541C32.4057 7.26111 32.3843 7.30185 32.3872 7.31529L32.4313 7.36107C32.4531 7.37283 32.4884 7.40895 32.5103 7.44129C32.5321 7.47363 32.5422 7.51815 32.5338 7.53957L32.5266 7.59417L32.538 7.64625C32.5392 7.66725 32.5636 7.71555 32.5922 7.75293C32.6211 7.79073 32.6455 7.83315 32.6463 7.84659L32.6304 7.89573L32.6186 7.95957L32.6022 7.98435L32.5447 7.96965L32.4855 8.01375L32.4607 8.07759C32.4607 8.08851 32.454 8.12253 32.446 8.15319C32.4376 8.18385 32.4027 8.22501 32.3687 8.24475C32.3343 8.26449 32.3049 8.28843 32.3032 8.29725L32.2868 8.34009L32.2436 8.37621C32.2276 8.38167 32.2129 8.41527 32.2112 8.45181C32.2091 8.48793 32.2146 8.52405 32.2226 8.53203L32.2763 8.55009C32.2982 8.55177 32.3439 8.58159 32.3784 8.61561C32.4124 8.65005 32.4758 8.69583 32.5195 8.71767C32.5632 8.73909 32.6312 8.79243 32.6707 8.83569C32.7106 8.87895 32.7891 9.02931 32.8463 9.17043C32.903 9.31113 32.9466 9.49929 32.9429 9.58917C32.9391 9.67821 32.9261 9.77229 32.913 9.79749C32.9009 9.82269 32.7765 9.94659 32.6375 10.073C32.4989 10.1994 32.2465 10.362 32.0777 10.4338C31.9088 10.5065 31.7921 10.5858 31.8185 10.6115C31.8446 10.6367 31.8807 10.6841 31.8987 10.7165C31.9172 10.7488 31.9319 10.7879 31.9319 10.8034L31.9773 10.8215C32.0029 10.816 32.021 10.8391 32.0189 10.8723C32.0159 10.9055 32.0243 10.9458 32.0365 10.9609L32.0319 11.0184C32.0163 11.0348 32.0319 11.1415 32.0663 11.2545C32.1003 11.3683 32.1285 11.4754 32.1285 11.4926C32.1285 11.5098 32.1541 11.5699 32.186 11.6258C32.2175 11.6816 32.2368 11.7329 32.2284 11.74C32.2205 11.7476 32.189 11.7929 32.1583 11.8416C32.1276 11.8904 32.0982 11.95 32.094 11.9731L32.1201 12.0466L32.1528 12.1092L32.1024 12.1596L32.0252 12.1516L31.9773 12.0924L31.9361 12.0613L31.8933 12.0739L31.8521 12.1138L31.8273 12.173L31.829 12.2402L31.8538 12.3041L31.8756 12.3696C31.8773 12.3897 31.8496 12.3687 31.8143 12.3238C31.779 12.2789 31.7274 12.2318 31.6997 12.2205C31.6719 12.2091 31.5951 12.2159 31.5291 12.2369C31.4632 12.2579 31.4283 12.2553 31.4514 12.2318L31.5044 12.1697L31.514 12.1352C31.514 12.1268 31.5065 12.092 31.4976 12.0579C31.4888 12.0235 31.4619 11.9857 31.4384 11.9744C31.4145 11.9626 31.3704 11.9277 31.3397 11.8967C31.3091 11.8664 31.2612 11.8269 31.2335 11.8097C31.2053 11.7925 31.149 11.7686 31.1083 11.7572C31.0676 11.7459 31.0516 11.7295 31.0722 11.7215L31.1066 11.6804C31.1049 11.6657 31.0877 11.6258 31.0692 11.5913C31.0499 11.5569 31.002 11.4972 30.9621 11.4586C30.9222 11.42 30.8844 11.3704 30.8786 11.3486C30.8727 11.3267 30.8786 11.2713 30.8933 11.2251C30.9075 11.1797 30.9206 11.1192 30.9227 11.0924C30.9248 11.0655 30.9038 10.9727 30.8769 10.8861C30.85 10.7992 30.8286 10.7102 30.8294 10.6887L30.8525 10.6098C30.8639 10.5879 30.8727 10.5308 30.8706 10.4817C30.8685 10.4325 30.8584 10.3746 30.8475 10.3519C30.8366 10.3288 30.7685 10.3149 30.6967 10.3204C30.6245 10.3263 30.5526 10.3233 30.5371 10.3141C30.522 10.3053 30.4724 10.2981 30.4275 10.2994C30.3821 10.2998 30.3347 10.2847 30.3221 10.2645C30.3095 10.2448 30.1977 10.2309 30.0743 10.2339C29.9504 10.2364 29.8269 10.2679 29.8004 10.3044C29.7731 10.3406 29.7593 10.3439 29.7689 10.3124C29.779 10.2809 29.7845 10.2368 29.7803 10.2146L29.7215 10.1226C29.6925 10.0949 29.501 10.0222 29.296 9.96129C29.091 9.90039 28.9104 9.83907 28.8953 9.82353C28.8802 9.80841 28.8558 9.77145 28.8416 9.74163C28.8269 9.71181 28.7168 9.62529 28.5967 9.54969C28.4766 9.47325 28.325 9.39765 28.2586 9.38043C28.1927 9.36363 28.104 9.34767 28.0616 9.34599C28.0188 9.34431 27.9507 9.31701 27.9104 9.28509C27.8701 9.25317 27.7911 9.22881 27.7349 9.23091C27.6786 9.23259 27.5043 9.27669 27.3472 9.32919C27.1901 9.38169 27.07 9.41613 27.0797 9.40647C27.0893 9.39681 27.117 9.33927 27.141 9.27837C27.1641 9.21747 27.1792 9.15153 27.1733 9.13053C27.1679 9.10995 27.1473 9.06795 27.1275 9.03687C27.1074 9.00621 27.0746 8.93271 27.0536 8.87433C27.0326 8.81553 27.0087 8.76219 26.9994 8.75631L26.9831 8.71347L26.9633 8.64291C26.9524 8.62107 26.939 8.57823 26.9339 8.54757C26.928 8.51691 26.9196 8.48541 26.9142 8.47701L26.8533 8.44929C26.8256 8.44215 26.75 8.43879 26.6861 8.44131C26.6219 8.44383 26.5618 8.49633 26.553 8.55765C26.5442 8.61897 26.529 8.68155 26.5202 8.69709C26.5114 8.71263 26.5043 8.68155 26.5043 8.62863C26.5043 8.57529 26.498 8.51775 26.4912 8.50011L26.4513 8.43459L26.4173 8.36865L26.3728 8.30481L26.3367 8.25231L26.3547 8.19813L26.3711 8.11749L26.3619 8.03853C26.3568 8.02047 26.3589 7.94529 26.3665 7.87137C26.3741 7.79703 26.3774 7.71891 26.3749 7.69707L26.3833 7.64625L26.3888 7.59207L26.3657 7.54965L26.351 7.51815L26.3833 7.47909C26.4014 7.47447 26.4635 7.39173 26.5211 7.29513C26.579 7.19853 26.6265 7.10277 26.6265 7.08177L26.6496 7.00491C26.6622 6.98307 26.6987 6.94863 26.7315 6.92763C26.7638 6.90705 26.8092 6.86757 26.8314 6.84069L26.8608 6.77979L26.8495 6.73863L26.8789 6.67143L26.9511 6.63237L27.012 6.60927L27.0431 6.55803L27.0301 6.51687L27.0351 6.50217L27.0792 6.48747L27.1086 6.45261L27.1397 6.41691L27.1511 6.37911C27.149 6.36525 27.1771 6.35517 27.2132 6.35601C27.2493 6.35685 27.2972 6.35349 27.3203 6.34803L27.3363 6.30855L27.2792 6.27369L27.2426 6.24261C27.2409 6.22833 27.2796 6.21657 27.3279 6.21657C27.3766 6.21657 27.4316 6.22161 27.4497 6.22833C27.4673 6.23463 27.5072 6.24093 27.5379 6.24303C27.5685 6.24513 27.6206 6.22581 27.653 6.20061C27.6853 6.17499 27.7315 6.15063 27.7546 6.14643L27.8126 6.12333C27.8205 6.11535 27.8289 6.06873 27.8319 6.02001C27.8344 5.97129 27.797 5.91375 27.7483 5.89191C27.6996 5.87049 27.6471 5.85285 27.632 5.85285C27.6164 5.85285 27.5601 5.81757 27.5072 5.77389C27.4539 5.73021 27.3808 5.71551 27.3443 5.74071C27.3086 5.76591 27.2506 5.78817 27.2162 5.79027C27.1821 5.79153 27.1746 5.77179 27.2002 5.74575L27.2233 5.69199L27.18 5.68527C27.1695 5.68527 27.1179 5.66721 27.0654 5.64411C27.0129 5.62101 26.9432 5.61093 26.9096 5.62143C26.876 5.63109 26.8352 5.63529 26.8193 5.63109L26.7554 5.59665L26.7407 5.55885L26.7605 5.49963L26.7819 5.47821L26.8474 5.51937L26.8995 5.54541C26.9045 5.55171 26.9369 5.56095 26.9721 5.56515C27.0074 5.56935 27.0713 5.59035 27.1154 5.61093C27.1586 5.63193 27.2115 5.65251 27.233 5.65671C27.2544 5.66091 27.2985 5.66385 27.3296 5.66175C27.3615 5.65965 27.4497 5.68023 27.5265 5.70753C27.6038 5.73483 27.6777 5.77011 27.6929 5.78649L27.755 5.81589L27.834 5.79783L27.9113 5.77977L27.9688 5.77515L28.0263 5.72559L28.0608 5.64705L28.0524 5.58783L28.0641 5.55171L28.0654 5.52231L28.0625 5.47485L28.1129 5.44545L28.1624 5.47149L28.1931 5.51559C28.2032 5.52525 28.2401 5.53071 28.275 5.52693C28.3103 5.52315 28.38 5.52525 28.4291 5.53197C28.4791 5.53827 28.569 5.52693 28.6299 5.50719C28.6908 5.48745 28.7571 5.45763 28.7777 5.44167L28.8172 5.36943C28.8185 5.34591 28.8453 5.30307 28.8781 5.27409C28.9109 5.24511 28.9571 5.19513 28.9802 5.16237C29.0033 5.12961 29.0406 5.09097 29.0621 5.07543L29.1238 5.01117L29.1519 4.93221L29.1192 4.85829C29.0982 4.84107 28.9356 4.81587 28.758 4.80243C28.5803 4.78899 28.4031 4.75413 28.364 4.72515C28.325 4.69659 28.2762 4.65291 28.2557 4.62855C28.2347 4.60419 28.1565 4.55337 28.0814 4.51515C28.0066 4.47735 27.8693 4.44249 27.776 4.43787C27.6828 4.43325 27.7109 4.42737 27.8386 4.42485C27.9654 4.42233 28.0843 4.41393 28.1028 4.40679L28.1826 4.40511C28.2086 4.41141 28.3523 4.49373 28.5014 4.58907C28.6505 4.68441 28.8403 4.76043 28.9235 4.75833C29.0062 4.75665 29.1133 4.71591 29.1612 4.66803C29.2091 4.62015 29.2628 4.57479 29.2809 4.56807L29.33 4.53027L29.3594 4.46811L29.4052 4.42233L29.4594 4.36311L29.4758 4.27911C29.4732 4.26105 29.4468 4.23669 29.4165 4.22535C29.3871 4.21359 29.3498 4.18923 29.3346 4.17075L29.2994 4.11195L29.3271 4.07415C29.3468 4.06953 29.4065 4.06575 29.4598 4.06575C29.5131 4.06575 29.5724 4.07037 29.5913 4.07541L29.6618 4.05063L29.7105 4.02795L29.7404 4.07919C29.7492 4.10061 29.7912 4.14051 29.834 4.16739C29.8764 4.19427 29.9478 4.22031 29.9932 4.22493C30.0381 4.22955 30.0738 4.21191 30.0722 4.18545L30.0848 4.15437L30.1507 4.18041L30.2309 4.21149L30.3036 4.23459L30.341 4.19679C30.3393 4.17537 30.3128 4.13379 30.2817 4.10523C30.2511 4.07625 30.2229 4.04223 30.2196 4.02963C30.2162 4.01703 30.1553 3.96159 30.0848 3.90657C30.0146 3.85155 29.9365 3.80661 29.9113 3.80661L29.8899 3.78519C29.9033 3.77343 29.9499 3.76377 29.9932 3.76377C30.0365 3.76377 30.0793 3.77175 30.0885 3.78057L30.1083 3.83307L30.1557 3.89061L30.2263 3.91203L30.2607 3.92001C30.2654 3.92421 30.2847 3.95487 30.304 3.98721C30.3225 4.01955 30.3691 4.07037 30.4069 4.10061C30.4447 4.13043 30.5552 4.10313 30.6518 4.03971C30.7479 3.97671 30.8391 3.92463 30.8534 3.92463L30.9025 3.90195C30.9151 3.88935 30.939 3.85407 30.955 3.82299C30.9714 3.79233 31.0151 3.76503 31.0516 3.76251C31.089 3.75957 31.1251 3.75075 31.1318 3.74277C31.1394 3.73479 31.1679 3.67263 31.1957 3.60501C31.2234 3.53739 31.1772 3.41769 31.0923 3.33873C31.0079 3.26061 30.9138 3.14217 30.884 3.07623C30.8542 3.01029 30.8088 2.94603 30.7841 2.93343L30.7379 2.87925C30.7379 2.86203 30.7811 2.85111 30.8336 2.85447C30.8861 2.85783 30.9554 2.85657 30.9878 2.85111C31.0201 2.84565 31.0529 2.83515 31.06 2.82801L31.1062 2.80155L31.1654 2.76585L31.2095 2.71167L31.1994 2.65581L31.1322 2.62809L31.0566 2.60331L31.0335 2.56845L31.0831 2.54073L31.1448 2.49663L31.1726 2.44245L31.1629 2.40297C31.1566 2.39457 31.1196 2.38071 31.081 2.37189C31.0419 2.36265 30.9827 2.35551 30.9483 2.35551C30.9143 2.35551 30.8639 2.33115 30.8366 2.30091C30.8097 2.27151 30.7526 2.23077 30.7101 2.21103C30.6673 2.19129 30.6602 2.17197 30.6938 2.16819C30.7269 2.16483 30.7509 2.14299 30.7463 2.12073C30.7416 2.09805 30.635 2.07201 30.5102 2.06277C30.3842 2.05395 30.2477 2.03001 30.2061 2.01027C30.1646 1.99053 30.086 1.97163 30.0306 1.96785C29.9756 1.96407 29.9126 1.96953 29.8907 1.98045C29.8693 1.99137 29.8235 2.00145 29.7895 2.00355C29.7551 2.00523 29.7269 2.02875 29.7269 2.05605L29.7143 2.13963C29.7068 2.15853 29.7059 2.21187 29.7122 2.25807C29.7189 2.30385 29.7521 2.36181 29.7866 2.38617C29.8206 2.41053 29.8731 2.43993 29.9025 2.45169C29.9323 2.46345 29.9378 2.49159 29.9142 2.51385L29.855 2.57937L29.8748 2.63187L29.9042 2.66631L29.8643 2.67303C29.8462 2.67303 29.7941 2.68605 29.7483 2.70243C29.7026 2.71881 29.6454 2.78601 29.6219 2.85195C29.598 2.91747 29.5782 2.99013 29.5774 3.01239L29.5526 3.09429C29.54 3.11697 29.4955 3.17283 29.4543 3.21735C29.4128 3.26229 29.3754 3.33117 29.3712 3.37023C29.3661 3.40887 29.3535 3.45843 29.343 3.48027C29.3321 3.50211 29.2956 3.52521 29.2611 3.53277C29.2267 3.53991 29.175 3.56973 29.1465 3.59997C29.1175 3.62937 29.0747 3.66507 29.0511 3.67851L28.9886 3.68355L28.9772 3.62097L28.9558 3.53067C28.9398 3.50463 28.871 3.42861 28.8033 3.36183C28.7357 3.29505 28.6765 3.21735 28.6723 3.18963C28.6677 3.16149 28.6668 3.09723 28.6706 3.04683C28.6744 2.99643 28.6904 2.96367 28.7067 2.97459L28.784 2.99433L28.8332 2.94351C28.8344 2.91537 28.8281 2.86623 28.8201 2.83515C28.8122 2.80323 28.8054 2.75829 28.8054 2.73519C28.8054 2.71167 28.7794 2.65749 28.7479 2.61549C28.7164 2.57265 28.6635 2.52855 28.6299 2.51679C28.5967 2.50545 28.5404 2.46597 28.5051 2.42985C28.4699 2.39373 28.4237 2.36559 28.4018 2.36769L28.3245 2.38743L28.2557 2.43825L28.2095 2.52561C28.2015 2.55459 28.1784 2.60709 28.1574 2.64237C28.1364 2.67765 28.115 2.74569 28.1095 2.79315C28.104 2.84103 28.0822 2.89731 28.0604 2.91789L27.9864 2.95233C27.9675 2.95065 27.9407 2.92125 27.9255 2.88639C27.9113 2.85237 27.8995 2.79819 27.8995 2.76669C27.8995 2.73477 27.8907 2.67009 27.8802 2.62221C27.8693 2.57433 27.8512 2.51763 27.8403 2.49579C27.8294 2.47395 27.7798 2.42901 27.7302 2.39583C27.6803 2.36223 27.6698 2.33535 27.7071 2.33661C27.7441 2.33745 27.7743 2.33115 27.7743 2.32191L27.8126 2.28915L27.8743 2.24967L27.8798 2.22027C27.8688 2.21649 27.8042 2.21229 27.7365 2.21019C27.6689 2.20851 27.6135 2.19087 27.6135 2.17071C27.6135 2.15055 27.5803 2.14299 27.5396 2.15265C27.4988 2.16273 27.4509 2.17827 27.4325 2.18709C27.4144 2.19633 27.3359 2.17533 27.2569 2.14131C27.1784 2.10687 27.1162 2.07075 27.1191 2.06109L27.1716 1.99515L27.2682 1.92291L27.3174 1.88343L27.2783 1.85739L27.2384 1.81623L27.2615 1.77843C27.2741 1.77381 27.3287 1.77507 27.3829 1.78053C27.4375 1.78599 27.4812 1.77381 27.4812 1.75449C27.4812 1.73475 27.456 1.71207 27.4253 1.70493C27.3947 1.69779 27.3577 1.66671 27.3434 1.63605C27.3291 1.60539 27.3174 1.56885 27.3174 1.55541L27.2846 1.49787L27.2111 1.44873C27.188 1.43991 27.1322 1.40211 27.086 1.36515C27.0402 1.32819 27.0129 1.28745 27.0251 1.27485C27.0377 1.26225 27.049 1.20933 27.0498 1.15641C27.0511 1.10391 27.0221 1.03041 26.986 0.992193C26.9499 0.954393 26.8907 0.906933 26.8545 0.887193C26.8188 0.867453 26.7844 0.839313 26.7777 0.825033C26.771 0.810753 26.7386 0.783033 26.705 0.764133C26.6718 0.745233 26.6156 0.728433 26.5807 0.726333C26.5454 0.724653 26.5097 0.715833 26.5017 0.706593C26.4929 0.697773 26.4387 0.686012 26.3799 0.680552C26.3211 0.675092 26.2216 0.696093 26.1586 0.726333C26.0952 0.756993 26.0288 0.802773 26.0108 0.828393L25.9994 0.895593L26.0616 0.917013L26.1057 0.949773L26.0826 1.00563L26.0284 1.02873L25.9528 0.997653L25.8822 0.971613L25.8348 0.999333L25.7835 1.07157C25.7693 1.09845 25.7588 1.18497 25.7604 1.26351C25.7625 1.34205 25.8016 1.41975 25.8478 1.43571C25.8936 1.45209 25.9305 1.47561 25.9297 1.48821L25.8822 1.51131L25.8163 1.55079L25.7655 1.62765L25.7348 1.71795L25.7688 1.82295L25.8394 1.89183L25.8806 1.92753L25.9268 1.98213C25.9494 2.00061 26.0318 2.03799 26.1107 2.06403C26.1893 2.09007 26.2821 2.11149 26.3174 2.11149C26.3526 2.11149 26.3951 2.11737 26.411 2.12451L26.4635 2.16063L26.5227 2.19969L26.587 2.21775C26.6021 2.21859 26.6408 2.21481 26.6718 2.20935C26.7038 2.20389 26.7458 2.20305 26.7659 2.20767L26.8184 2.25345C26.8272 2.27403 26.8088 2.30889 26.7773 2.33073C26.7453 2.35257 26.7109 2.35803 26.7 2.34375L26.6324 2.31771L26.5719 2.34249L26.5782 2.39331L26.5912 2.44917C26.5878 2.46555 26.5605 2.50293 26.5307 2.53317C26.5009 2.56257 26.4728 2.60415 26.4686 2.62473L26.4992 2.66883C26.5211 2.67261 26.5631 2.66085 26.5929 2.64279C26.6227 2.62473 26.6496 2.59449 26.6521 2.57517L26.6773 2.52099L26.7134 2.51259L26.7495 2.55879C26.76 2.57727 26.7626 2.63145 26.7546 2.67849C26.7462 2.72553 26.75 2.77425 26.763 2.78685C26.7752 2.79987 26.7428 2.82843 26.6903 2.85111C26.6382 2.87379 26.5895 2.90403 26.582 2.91831C26.5748 2.93301 26.5211 2.98383 26.4627 3.03171C26.4035 3.08001 26.314 3.11739 26.2636 3.11529C26.2132 3.11361 26.1607 3.11949 26.1473 3.12831C26.1338 3.13713 26.104 3.18627 26.0817 3.23667C26.0586 3.28749 26.0696 3.35469 26.1044 3.38577C26.1397 3.41769 26.1687 3.45675 26.1687 3.47313L26.1918 3.55335L26.2031 3.63399C26.1968 3.65037 26.1897 3.69321 26.1863 3.72933C26.1838 3.76545 26.1687 3.80409 26.1523 3.81459C26.1359 3.82551 26.0868 3.83559 26.0423 3.83769C25.9982 3.83979 25.9721 3.87633 25.9847 3.91959C25.9969 3.96327 25.994 3.98847 25.9776 3.97545L25.9385 3.92967C25.9326 3.91665 25.8986 3.87927 25.8629 3.84609C25.8268 3.81249 25.8041 3.77721 25.8134 3.76713L25.8659 3.74949L25.9091 3.73941L25.9322 3.74277C25.941 3.75033 25.9868 3.75705 26.0334 3.75915C26.0805 3.76083 26.1191 3.73437 26.1191 3.69993C26.1191 3.66549 26.1015 3.63525 26.0796 3.63273L26.0385 3.61173L26.0255 3.57561L25.9797 3.58233L25.9142 3.59493L25.8831 3.54915L25.8453 3.49959L25.7798 3.44373C25.7642 3.42231 25.7743 3.36729 25.8024 3.32193C25.8306 3.27741 25.8638 3.20181 25.8768 3.15477C25.889 3.10815 25.8944 3.06237 25.8881 3.05313L25.8453 3.03843L25.7911 3.05775L25.7483 3.08379L25.7134 3.09219L25.6857 3.05607L25.6609 3.00525L25.6105 2.98551C25.5882 2.98257 25.5504 2.95191 25.5265 2.91663C25.5017 2.88135 25.4303 2.84607 25.3673 2.83767C25.3039 2.82969 25.2417 2.83767 25.2296 2.85531L25.1624 2.90949C25.1376 2.92125 25.0939 2.92503 25.0637 2.91789C25.0343 2.91033 25.0128 2.92083 25.0162 2.94057L25.0456 2.99307L25.0586 3.03255L25.049 3.08841L25.0805 3.13587C25.0973 3.14385 25.1699 3.15057 25.2413 3.15057C25.3127 3.15057 25.382 3.16065 25.3955 3.17367L25.4429 3.19677L25.4757 3.23793L25.4853 3.31311C25.4853 3.33201 25.4547 3.34839 25.4165 3.34923C25.3787 3.34965 25.3253 3.34545 25.298 3.33957C25.2716 3.33285 25.1981 3.28707 25.1359 3.23751C25.0737 3.18795 25.0091 3.15267 24.9927 3.15897L24.9847 3.19173L24.9944 3.23289L24.9398 3.29715C24.9167 3.32151 24.755 3.32067 24.5807 3.29505C24.4064 3.26985 24.227 3.26103 24.1817 3.27573C24.1367 3.29001 24.0284 3.30639 23.9406 3.31185C23.8528 3.31731 23.681 3.29001 23.5584 3.25053C23.4353 3.21189 23.3186 3.16275 23.2988 3.14049C23.2791 3.11907 23.169 3.10773 23.0544 3.11571C22.9397 3.12411 22.8221 3.10101 22.7936 3.06489C22.765 3.02877 22.6944 2.98131 22.6373 2.95989C22.5806 2.93805 22.5235 2.87799 22.5109 2.82549C22.4987 2.77299 22.4567 2.70075 22.4189 2.66463C22.3811 2.62893 22.3286 2.59533 22.3026 2.59071C22.2765 2.58609 22.1934 2.59953 22.1186 2.62011C22.0434 2.64111 21.9599 2.67135 21.933 2.68731C21.9061 2.70327 21.7952 2.73057 21.6869 2.74653C21.5785 2.76291 21.4386 2.82129 21.3769 2.87631C21.3147 2.93091 21.3068 2.99055 21.3588 3.00735C21.4109 3.02499 21.4962 3.03885 21.5474 3.03885C21.5987 3.03885 21.6482 3.02457 21.6575 3.00735L21.7167 2.96157L21.7696 2.95653C21.7751 2.96199 21.846 2.94939 21.9267 2.92881C22.0082 2.90823 22.0997 2.86959 22.1304 2.84313C22.161 2.81709 22.2131 2.79021 22.2463 2.78265C22.2803 2.77509 22.3253 2.76921 22.3467 2.76921C22.3681 2.76921 22.3845 2.79651 22.3828 2.83053C22.3811 2.86371 22.3412 2.89773 22.2942 2.90571C22.2476 2.91369 22.1896 2.93763 22.1661 2.95821L22.0707 3.02583C22.0422 3.04221 21.9548 3.06951 21.8767 3.08631C21.799 3.10353 21.7112 3.13461 21.6818 3.15519C21.6516 3.17619 21.6192 3.22029 21.6092 3.25347C21.5995 3.28707 21.6205 3.34545 21.6566 3.38325C21.6927 3.42105 21.7305 3.46641 21.7406 3.48321L21.7599 3.55713L21.7835 3.63399L21.8305 3.69363L21.875 3.77049L21.8616 3.82299L21.8204 3.83433L21.7877 3.84903L21.7583 3.87843L21.7553 3.92967L21.7814 3.98721L21.8137 4.05105L21.8045 4.07373C21.7935 4.06911 21.736 4.01787 21.6759 3.95907C21.6163 3.90027 21.5575 3.85281 21.5449 3.85281L21.5105 3.82131L21.4693 3.76041C21.4529 3.74445 21.4731 3.73269 21.5134 3.73437C21.5541 3.73563 21.5894 3.72051 21.5924 3.69951L21.594 3.63231C21.5919 3.61593 21.5466 3.56637 21.4924 3.52227C21.4382 3.47817 21.3819 3.45087 21.3677 3.46179L21.3038 3.49455L21.2513 3.45843L21.2366 3.36981C21.2366 3.34797 21.1745 3.31563 21.0989 3.29757C21.0224 3.27951 20.943 3.24129 20.9212 3.21189L20.8326 3.15813C20.8057 3.15729 20.7553 3.16821 20.7209 3.18249C20.6864 3.19719 20.6356 3.22533 20.6075 3.24507C20.5793 3.26481 20.4739 3.29001 20.3727 3.30093C20.2715 3.31185 20.166 3.31647 20.1375 3.31101C20.1098 3.30555 20.0552 3.31395 20.0161 3.33033C19.977 3.34671 19.8674 3.36141 19.7717 3.36351C19.6755 3.36519 19.5659 3.35469 19.5272 3.34041C19.4882 3.32613 19.3592 3.30471 19.2395 3.29295C19.1202 3.28119 19.0073 3.25683 18.9879 3.23835C18.9695 3.22071 18.9753 3.17115 19.0014 3.12831C19.0274 3.08589 19.0635 3.04515 19.0816 3.03843L19.1341 3.00903C19.1446 3.00021 19.2063 2.99139 19.2702 2.99097C19.334 2.99013 19.3958 2.97963 19.4063 2.96829L19.4243 2.91579C19.4235 2.89857 19.3265 2.81583 19.2076 2.73183C19.0896 2.64783 18.9182 2.57517 18.8271 2.57097C18.7355 2.56635 18.6561 2.57307 18.6498 2.58609L18.6204 2.62725C18.6104 2.63691 18.4663 2.62011 18.3 2.58945C18.1337 2.55879 17.9216 2.49033 17.8275 2.43699C17.7334 2.38365 17.5738 2.33577 17.4726 2.33031C17.3714 2.32485 17.195 2.26647 17.0799 2.20011C16.9656 2.13459 16.8006 2.06277 16.7141 2.04135C16.6275 2.01951 16.4688 2.00943 16.3608 2.01825C16.2537 2.02749 16.1597 2.05185 16.1525 2.07243L16.1135 2.13795C16.0988 2.15349 16.0727 2.19255 16.0555 2.22489C16.0383 2.25765 16.0118 2.29293 15.9963 2.30385C15.9812 2.31477 15.9119 2.32275 15.8421 2.32191C15.7724 2.32149 15.7031 2.30091 15.688 2.27781L15.6796 2.21733L15.7254 2.15139L15.7649 2.09049L15.7266 2.05941L15.6594 2.02329C15.6506 2.01363 15.6426 1.96743 15.6418 1.92165C15.6405 1.87587 15.63 1.83723 15.6166 1.83639L15.5658 1.85571L15.5385 1.89351L15.5301 1.92291L15.4986 1.95063L15.4788 2.00817L15.4625 2.05143L15.4016 2.06781L15.3457 2.10519L15.3591 2.15475L15.3671 2.20431L15.3558 2.25177L15.3478 2.29293L15.3045 2.30763C15.2903 2.30763 15.2491 2.29167 15.2142 2.27193C15.179 2.25219 15.1416 2.23581 15.1307 2.23581L15.0765 2.21943L15.0009 2.15517L14.9303 2.08629L14.8694 2.01741L14.8362 1.94181C14.8354 1.92627 14.7921 1.85865 14.7396 1.79103C14.6876 1.72299 14.6321 1.65957 14.6166 1.64991L14.5494 1.59069L14.4788 1.53315L14.4116 1.53651L14.3658 1.58901C14.3604 1.60707 14.3948 1.64781 14.4431 1.67889C14.491 1.71081 14.5212 1.74231 14.5103 1.74987C14.4994 1.75701 14.449 1.77171 14.3969 1.78263C14.3448 1.79355 14.2949 1.81917 14.2835 1.84017L14.2638 1.90107L14.2344 1.93425C14.2184 1.93971 14.1731 1.96953 14.1344 2.00145C14.0954 2.03295 14.0429 2.05647 14.0177 2.05395L13.9639 2.01951C13.9589 2.00313 13.8849 2.00691 13.7997 2.02791C13.7136 2.04891 13.5771 2.12031 13.4956 2.18709C13.4141 2.25387 13.3293 2.29755 13.3066 2.28369C13.2843 2.27025 13.2108 2.26059 13.1441 2.26269C13.0773 2.26395 13.0088 2.28327 12.9916 2.30511C12.9744 2.32695 12.9332 2.36559 12.8996 2.39037C12.8664 2.41599 12.8068 2.44833 12.7686 2.46303C12.7295 2.47689 12.6896 2.50587 12.68 2.52687L12.685 2.57139L12.7358 2.60415C12.7514 2.61885 12.7148 2.63271 12.6556 2.63523C12.596 2.63817 12.5456 2.65413 12.5435 2.67135L12.5208 2.70243L12.4666 2.68773L12.4305 2.65161L12.4414 2.60415L12.4893 2.54325L12.543 2.50587L12.5892 2.49075L12.627 2.46807L12.6501 2.42859L12.6795 2.38743L12.719 2.37735C12.7304 2.37945 12.7682 2.36181 12.8026 2.33787C12.8366 2.31477 12.8832 2.27193 12.9059 2.24295L12.9979 2.17239C13.0256 2.16231 13.1029 2.14971 13.1684 2.14467C13.2344 2.13921 13.4057 2.08083 13.5494 2.01489C13.693 1.94895 13.8198 1.88469 13.8316 1.87209L13.8627 1.82127C13.8686 1.80573 13.8476 1.79187 13.8169 1.78977C13.7862 1.78767 13.7279 1.79397 13.6871 1.80279C13.6464 1.81203 13.58 1.81497 13.5393 1.80951C13.4985 1.80405 13.4318 1.81413 13.3914 1.83261C13.3507 1.85067 13.299 1.88973 13.2764 1.91955C13.2541 1.94937 13.2251 1.96617 13.2129 1.95735C13.2003 1.94811 13.1268 1.96827 13.05 2.00145C12.9731 2.03463 12.8799 2.06193 12.8417 2.06193C12.8034 2.06193 12.7719 2.07201 12.7711 2.08503C12.7698 2.09763 12.74 2.10897 12.7039 2.10981C12.6678 2.11065 12.6228 2.12157 12.6039 2.13459L12.5645 2.20515L12.5086 2.25261C12.4809 2.25261 12.4301 2.26143 12.3969 2.27235C12.3633 2.28285 12.3263 2.30133 12.3146 2.31351L12.2587 2.34459C12.2398 2.35005 12.1949 2.38239 12.1587 2.41641C12.1226 2.45085 12.0827 2.49453 12.0701 2.51343C12.0575 2.53233 12.0714 2.58567 12.1012 2.63145C12.131 2.67723 12.1247 2.70957 12.0865 2.70201C12.0487 2.69445 12.0033 2.67471 11.9865 2.65791C11.9693 2.64027 11.9198 2.62053 11.8765 2.61339C11.8328 2.60625 11.7841 2.61087 11.7681 2.62347L11.7665 2.69739C11.7816 2.72511 11.7383 2.71839 11.6694 2.68269C11.601 2.64657 11.3876 2.58525 11.1953 2.54661C11.0029 2.50755 10.7669 2.43825 10.6715 2.39205C10.5758 2.34627 10.4733 2.28159 10.4435 2.24925C10.4136 2.21649 10.3683 2.18079 10.3435 2.16903L10.278 2.16735C10.2671 2.17827 10.1096 2.16861 9.92812 2.14635C9.74668 2.12367 9.58708 2.10099 9.57322 2.09511L9.51274 2.05059C9.49258 2.03211 9.37708 1.97499 9.25486 1.92417C9.13306 1.87335 8.96926 1.82925 8.8903 1.82589C8.81218 1.82253 8.72944 1.82967 8.70676 1.84227C8.68366 1.85529 8.6299 1.86075 8.58664 1.85529C8.54338 1.84983 8.48836 1.85445 8.46358 1.86537C8.43922 1.87629 8.35942 1.88637 8.28634 1.88847C8.21326 1.89057 8.08768 1.86495 8.00746 1.83261C7.92724 1.79985 7.73152 1.76583 7.57234 1.75701C7.41358 1.74819 7.25398 1.72383 7.21786 1.70283C7.18174 1.68183 7.0927 1.65369 7.02088 1.64025C6.94864 1.62681 6.86884 1.60329 6.84322 1.58775C6.81802 1.57221 6.69622 1.56885 6.57232 1.57977C6.44842 1.59069 6.31822 1.59111 6.2821 1.58103C6.24556 1.57137 6.16828 1.57725 6.10948 1.59447C6.05068 1.61169 5.98978 1.61841 5.9734 1.60917C5.95744 1.60035 5.91964 1.59279 5.88982 1.59279C5.86 1.59279 5.82556 1.58775 5.81254 1.58103L5.7634 1.54155C5.74912 1.52601 5.70166 1.51383 5.6584 1.51383C5.61472 1.51383 5.58238 1.47477 5.58616 1.42689C5.58952 1.37943 5.566 1.33995 5.53366 1.33995C5.50132 1.33995 5.4379 1.33113 5.3938 1.32021C5.35012 1.30929 5.28082 1.30047 5.24134 1.30047C5.20186 1.30047 5.14432 1.31013 5.11366 1.32189C5.083 1.33365 5.01748 1.34247 4.96876 1.34121C4.92004 1.34079 4.8646 1.33365 4.8457 1.32651L4.79614 1.26267L4.75666 1.19379L4.70794 1.18539C4.69408 1.19085 4.65502 1.18875 4.621 1.18077C4.58656 1.17237 4.54498 1.17909 4.52902 1.19547L4.4992 1.23831L4.46812 1.27779L4.41058 1.31727L4.36144 1.33029L4.3039 1.31727L4.26946 1.27317C4.26946 1.25553 4.29718 1.23411 4.33162 1.22529C4.36606 1.21647 4.40008 1.19799 4.40722 1.18413L4.42024 1.14003C4.42024 1.12911 4.39168 1.10811 4.3564 1.09425C4.32112 1.07955 4.25266 1.06569 4.20394 1.06275C4.15522 1.05981 4.1149 1.04259 4.1149 1.02369L4.09054 0.988833C4.0771 0.988833 3.98134 1.05813 3.87844 1.14297C3.77554 1.22823 3.59368 1.31475 3.47482 1.33533C3.35596 1.35591 3.22786 1.36557 3.1909 1.35675C3.15352 1.34751 3.10816 1.34037 3.08884 1.34037C3.07036 1.34037 3.01324 1.36305 2.96242 1.39119C2.91202 1.41933 2.88682 1.45923 2.90656 1.47981L2.97544 1.53399L2.95612 1.57683L2.9032 1.63605L2.86876 1.66545L2.82676 1.62051L2.82172 1.54491L2.81332 1.51215C2.8045 1.51215 2.7247 1.55415 2.63608 1.60581C2.54746 1.65705 2.45296 1.70535 2.42566 1.71207C2.39878 1.71963 2.33536 1.72677 2.28454 1.72887C2.23414 1.73097 2.19298 1.72131 2.19298 1.70745C2.19298 1.69401 2.0968 1.76919 1.9792 1.87503C1.86202 1.98045 1.74148 2.12535 1.71166 2.19675C1.68184 2.26815 1.63774 2.35299 1.61506 2.38575C1.59112 2.41809 1.52476 2.46849 1.4668 2.49747C1.40884 2.52645 1.33282 2.55123 1.29628 2.55333C1.26058 2.55501 1.2169 2.56215 1.19968 2.56971C1.18246 2.57727 1.04764 2.58693 0.899383 2.59113C0.751123 2.59533 0.627223 2.63187 0.623443 2.67135C0.620083 2.71083 0.610003 2.75619 0.600343 2.77131C0.591523 2.78685 0.575983 2.82423 0.566323 2.85489C0.556243 2.88555 0.547843 2.91579 0.547843 2.92209C0.547843 2.92839 0.729283 3.03759 0.950203 3.16527C1.17112 3.29295 1.38952 3.45843 1.43404 3.53445C1.4794 3.61005 1.52812 3.67221 1.5424 3.67221C1.5571 3.67221 1.60246 3.68229 1.64236 3.69531C1.68352 3.70791 1.7713 3.72135 1.83808 3.72639C1.90486 3.73101 1.96786 3.71673 1.97752 3.69531L2.0233 3.68355C2.03884 3.69909 2.09134 3.72009 2.13964 3.73101C2.18836 3.74193 2.2417 3.75957 2.25766 3.77049L2.26102 3.79989L2.21776 3.83307L2.1997 3.88725L2.2312 3.96285L2.2921 4.02375C2.30848 4.03257 2.34754 4.03257 2.37862 4.02375C2.41054 4.01493 2.44876 3.99729 2.46388 3.98595L2.5399 3.98427L2.6155 3.99939L2.68774 3.99603L2.74528 4.02543L2.76544 4.06155L2.73226 4.10607L2.65036 4.15185H2.5693L2.50042 4.12245L2.4412 4.09305H2.38408L2.35258 4.12035L2.3908 4.15605L2.4517 4.19889L2.4601 4.23837L2.4349 4.24173L2.39248 4.22703H2.33158C2.3152 4.22871 2.27656 4.25433 2.24632 4.28457C2.21566 4.31397 2.16064 4.33917 2.12452 4.34043C2.0884 4.34085 2.0338 4.34883 2.00314 4.35681C1.97248 4.36479 1.93426 4.35849 1.91788 4.34211C1.90192 4.32573 1.8007 4.31229 1.69318 4.31229C1.58566 4.31229 1.48612 4.29885 1.47184 4.28289L1.41598 4.25349L1.40422 4.23543L1.43362 4.18629L1.4647 4.13379L1.48654 4.08297L1.4794 4.02417C1.47478 4.00779 1.42102 3.99813 1.3597 4.00275C1.29838 4.00737 1.21396 4.02921 1.1728 4.05189C1.13122 4.07457 1.04764 4.10355 0.987583 4.11615C0.927103 4.12875 0.854863 4.15101 0.826303 4.16529L0.781363 4.22535L0.804883 4.27785L0.795223 4.29927L0.729283 4.29087C0.707863 4.28457 0.655363 4.28079 0.612943 4.28247C0.570523 4.28415 0.490723 4.31943 0.435703 4.36143C0.380683 4.40343 0.314323 4.43997 0.287863 4.44375L0.189163 4.46979L0.115243 4.51263L0.0514026 4.53573L0.000162621 4.56849C-0.00529738 4.58655 0.127423 4.63947 0.294163 4.68651C0.460903 4.73355 0.603703 4.78605 0.610843 4.80327L0.583123 4.84233L0.523903 4.86543L0.474763 4.87173L0.426043 4.88307L0.435283 4.93431L0.499123 4.99185L0.535243 5.04141L0.528523 5.08719L0.541543 5.13171L0.578083 5.18085C0.586903 5.19639 0.701983 5.21697 0.833443 5.22663C0.965323 5.23671 1.08796 5.24931 1.10602 5.25477C1.12408 5.25981 1.16482 5.25183 1.19632 5.23671C1.22782 5.22159 1.32106 5.20731 1.40296 5.20563C1.48528 5.20395 1.56214 5.21193 1.5739 5.22369L1.61296 5.25519L1.66588 5.26485L1.70158 5.22201C1.70284 5.19849 1.72888 5.20647 1.76122 5.24007C1.79272 5.27325 1.82968 5.30223 1.84312 5.30391L1.8973 5.29257L1.9267 5.25981L1.9414 5.24175L1.9792 5.20899C1.9918 5.19093 2.03632 5.16447 2.07748 5.14977C2.11948 5.13549 2.16274 5.11407 2.17408 5.10231C2.18584 5.09055 2.22448 5.07963 2.25976 5.07921C2.29462 5.07837 2.3383 5.07123 2.35636 5.06451L2.40886 5.02503L2.45968 5.00529L2.49412 5.02965L2.51848 5.05905L2.54662 5.09853L2.55334 5.14977L2.50378 5.21403L2.43028 5.25519L2.3908 5.24049L2.36308 5.24343L2.35132 5.27787L2.38954 5.31399L2.46682 5.37825L2.51596 5.45511L2.54494 5.52777L2.56678 5.60463C2.56678 5.62521 2.55376 5.66679 2.53738 5.69661C2.52184 5.72601 2.48656 5.77095 2.45926 5.79615C2.43238 5.82177 2.36686 5.84529 2.31436 5.84865C2.26228 5.85201 2.19508 5.84571 2.16526 5.83395C2.13586 5.82219 2.09092 5.81589 2.06698 5.81925C2.04304 5.82261 1.9939 5.85999 1.95862 5.90115C1.92376 5.94273 1.86706 5.99775 1.83388 6.02295C1.80028 6.04815 1.71208 6.07545 1.6369 6.08385C1.56172 6.09225 1.50292 6.07923 1.50544 6.05613L1.48234 5.99523L1.41388 5.97675L1.33198 5.98851L1.2694 6.03261L1.24798 6.09015L1.19716 6.11955L1.13626 6.15063L1.11988 6.22455C1.1161 6.25059 1.1413 6.27201 1.17574 6.27201C1.21018 6.27201 1.22992 6.28755 1.22026 6.30687L1.20178 6.37197L1.1791 6.40347L1.12324 6.39171L1.04596 6.39087C1.0216 6.39633 0.967423 6.42909 0.926263 6.46437C0.885103 6.49965 0.840163 6.54291 0.827983 6.56097C0.815383 6.57903 0.801103 6.61893 0.796483 6.64959C0.791863 6.68025 0.793543 6.71637 0.800263 6.72981C0.806563 6.74325 0.778423 6.78483 0.737683 6.82179C0.697363 6.85875 0.678043 6.89823 0.694843 6.90873L0.734743 6.97299L0.772543 7.04859L0.815383 7.12251L0.875863 7.15023C0.902323 7.14225 0.931723 7.10487 0.941803 7.06791C0.951463 7.03137 0.994723 6.97383 1.03714 6.94149C1.07956 6.90915 1.11568 6.89529 1.11736 6.91041C1.11904 6.92595 1.09846 6.96543 1.07158 6.99861C1.0447 7.03221 1.0216 7.07715 1.02076 7.09857C1.01992 7.12041 1.02916 7.16283 1.0405 7.19223C1.05226 7.22205 1.06864 7.25607 1.07662 7.26783C1.08502 7.27959 1.16692 7.29051 1.2589 7.29261C1.35088 7.29429 1.4521 7.28337 1.4836 7.26783C1.5151 7.25229 1.54198 7.25691 1.54324 7.27749L1.56088 7.33713L1.5739 7.38795L1.54324 7.43205L1.50208 7.42197L1.4605 7.37619C1.44538 7.36443 1.40548 7.36863 1.37188 7.38585C1.3387 7.40307 1.31098 7.40307 1.31098 7.38585L1.2862 7.35477L1.21564 7.33545L1.12408 7.32369L1.06948 7.34847C1.06486 7.35729 1.03588 7.39341 1.00564 7.42869C0.974983 7.46355 0.971203 7.49883 0.997243 7.50555L1.04596 7.54335L1.10056 7.59291L1.17616 7.61727L1.22362 7.65507L1.29586 7.73403L1.3597 7.80963C1.36852 7.82811 1.40632 7.85079 1.4437 7.85877C1.48066 7.86675 1.55668 7.87053 1.61254 7.86675C1.6684 7.86339 1.74652 7.84155 1.78642 7.81929C1.82632 7.79703 1.87798 7.77813 1.90108 7.77813C1.92418 7.77813 1.94098 7.73193 1.9372 7.67481C1.93384 7.61895 1.96744 7.53075 2.01154 7.48035C2.05522 7.42953 2.10982 7.39005 2.1325 7.39215C2.1556 7.39383 2.13922 7.43709 2.0968 7.48875C2.05396 7.53999 2.01994 7.60089 2.02078 7.62315C2.02162 7.64541 2.06656 7.74747 2.12074 7.84953C2.17492 7.95159 2.20768 8.05155 2.1934 8.07129L2.15056 8.14857C2.14174 8.17125 2.15938 8.21115 2.19046 8.23719C2.2207 8.26323 2.23792 8.31825 2.22784 8.35899C2.21818 8.39931 2.1829 8.45013 2.1493 8.47239C2.1157 8.49381 2.13964 8.50893 2.20138 8.50683C2.26396 8.50431 2.32528 8.48625 2.33746 8.46777C2.35048 8.44845 2.4055 8.41317 2.46094 8.38881C2.51596 8.36445 2.56972 8.34471 2.58064 8.34471L2.64616 8.31405L2.70874 8.28465L2.74486 8.31573C2.75578 8.33337 2.7961 8.36193 2.83558 8.37999C2.87422 8.39763 2.91916 8.40057 2.93512 8.38503L3.0124 8.39133C3.03844 8.41023 3.0775 8.45223 3.09976 8.48499C3.1216 8.51733 3.1573 8.55639 3.17998 8.57193L3.23584 8.58495L3.26692 8.57025C3.27574 8.57025 3.2833 8.53329 3.2833 8.48793C3.2833 8.44299 3.30682 8.37915 3.3358 8.34681C3.36436 8.31405 3.38158 8.26911 3.3736 8.24685L3.38032 8.22375L3.43618 8.25651L3.48532 8.29431L3.51976 8.33715L3.49372 8.35185L3.42274 8.37495L3.42946 8.44425L3.49666 8.50137C3.51682 8.51019 3.64324 8.46315 3.77722 8.39637C3.91162 8.32959 4.00444 8.30439 3.98218 8.34051C3.96076 8.37663 3.94228 8.41695 3.94102 8.43081C3.9406 8.44425 3.90238 8.49045 3.85744 8.53245C3.8125 8.57529 3.77428 8.62695 3.77218 8.64753L3.80326 8.71977L3.79402 8.76387L3.73816 8.81175C3.73144 8.83233 3.72598 8.88189 3.72472 8.92179C3.72388 8.96169 3.72682 9.01209 3.73144 9.03519L3.69532 9.07635C3.67096 9.07635 3.58738 9.13263 3.5101 9.20109C3.43282 9.26955 3.35176 9.35523 3.33118 9.39135C3.31018 9.42747 3.27322 9.45687 3.24928 9.45687L3.16696 9.46821L3.10144 9.50811C3.0859 9.52323 2.99434 9.58203 2.89774 9.63789C2.80156 9.69375 2.71546 9.76011 2.70748 9.78573L2.70076 9.86217L2.69908 9.93399L2.66968 9.95583L2.61676 9.94449L2.56804 9.96927L2.53024 9.94617C2.51848 9.92433 2.47018 9.90249 2.42314 9.89703C2.37652 9.89157 2.31352 9.89199 2.2837 9.89871C2.2543 9.90543 2.21188 9.92223 2.19046 9.93651L2.1115 9.97431L2.03716 10.0272L1.99306 10.0991L1.95862 10.1629L1.9456 10.2356L1.9855 10.3124L2.04136 10.3326L2.1031 10.3107L2.18206 10.262L2.24716 10.1696L2.28496 10.1041L2.3131 10.0781H2.34796L2.36266 10.1028L2.34964 10.144L2.37736 10.1881L2.42818 10.1898L2.48992 10.1469C2.5147 10.1348 2.56846 10.1255 2.61004 10.1272C2.65162 10.1293 2.689 10.1154 2.69362 10.0961C2.69824 10.0776 2.72932 10.0566 2.7625 10.0503C2.79568 10.044 2.83138 10.0306 2.84146 10.0209L2.89396 10.0029L2.94982 10.0373C2.96158 10.0562 3.00148 10.0415 3.03844 10.0046C3.07582 9.96759 3.1174 9.93735 3.13042 9.93735L3.193 9.91929L3.25222 9.88149L3.3211 9.86175L3.403 9.84705L3.44248 9.80589L3.44416 9.73869L3.42778 9.68661L3.44248 9.64545L3.50632 9.61731L3.56722 9.59295C3.58066 9.57951 3.63148 9.54927 3.68062 9.52575C3.72934 9.50181 3.76966 9.47871 3.76966 9.47283C3.76966 9.46737 3.802 9.45729 3.84148 9.44973C3.88138 9.44259 3.96202 9.40857 4.02082 9.37413C4.07962 9.34011 4.1275 9.28971 4.1275 9.26241L4.15354 9.18219C4.16782 9.16497 4.306 9.07425 4.46014 8.98059C4.6147 8.88651 4.76506 8.80377 4.79362 8.79663L4.86586 8.78403L4.90534 8.77227L4.9528 8.73447L4.98052 8.67861L4.98724 8.61939L5.02 8.56185L5.06914 8.52909L5.11324 8.52405L5.1607 8.50641L5.2006 8.45055L5.23798 8.38839L5.22496 8.34723L5.15776 8.30103C5.1418 8.28507 5.09224 8.27037 5.04814 8.26827C5.00404 8.26659 4.9654 8.23551 4.96246 8.19939C4.95994 8.16327 4.98136 8.11875 5.00992 8.10111L5.07208 8.04189L5.10148 7.99779C5.11198 7.98771 5.14852 7.97301 5.1817 7.96461C5.21488 7.95663 5.25478 7.95075 5.26864 7.95159L5.31778 7.93857L5.3392 7.90371L5.32114 7.86255L5.33794 7.84113L5.4064 7.83273L5.45554 7.82475L5.4883 7.80165L5.50972 7.75377C5.51098 7.74033 5.48704 7.70421 5.45722 7.67355C5.42782 7.64289 5.42488 7.62273 5.45092 7.62945L5.52148 7.64079L5.56558 7.62105L5.587 7.57023L5.6164 7.50765L5.68024 7.45851C5.69872 7.44885 5.73904 7.41735 5.76886 7.38963C5.79868 7.36191 5.82304 7.33041 5.82304 7.32075L5.84278 7.26489C5.85328 7.24389 5.89402 7.22121 5.93308 7.21365C5.97214 7.20609 6.05572 7.16661 6.1183 7.12503C6.18172 7.08387 6.24052 7.05657 6.24934 7.06455L6.31192 7.08723L6.38584 7.11033C6.40096 7.11873 6.4543 7.08975 6.50386 7.04649C6.55342 7.00323 6.61054 6.96837 6.63028 6.96921L6.6664 6.99399L6.63868 7.04481L6.6076 7.12209L6.616 7.19559C6.62272 7.20945 6.65548 7.23591 6.68992 7.25481C6.72436 7.27371 6.73528 7.28925 6.7147 7.28925C6.69412 7.28925 6.64162 7.28043 6.59836 7.26951C6.5551 7.25859 6.49924 7.25271 6.4732 7.25649H6.38794L6.3178 7.23549L6.23758 7.24347L6.14056 7.30269L6.04396 7.36191L5.99524 7.42407L6.00322 7.49463L5.98684 7.57695C5.9734 7.60509 5.92804 7.66347 5.88688 7.70715C5.8453 7.75041 5.80624 7.80585 5.79994 7.83021L5.79028 7.90875C5.79112 7.92807 5.83018 7.94781 5.87722 7.95327C5.92384 7.95873 5.97088 7.95495 5.98096 7.94487L6.01834 7.94655L5.98516 8.01375C5.9566 8.03979 5.90242 8.06961 5.86546 8.07927C5.8285 8.08935 5.79364 8.10615 5.78818 8.11707L5.79112 8.16621C5.79868 8.18259 5.8306 8.19561 5.8621 8.19561C5.8936 8.19561 5.93896 8.18889 5.96206 8.18091C5.98558 8.17293 6.03304 8.16999 6.06706 8.17419C6.1015 8.17881 6.1393 8.16999 6.15106 8.15445L6.20356 8.10531L6.2527 8.06121L6.31192 8.02005L6.36568 7.98897L6.39718 7.97553L6.45304 7.95915L6.51688 7.91967L6.55468 7.87683L6.57442 7.85751L6.62524 7.83273L6.70714 7.79661L6.7924 7.79031C6.81802 7.79283 6.8638 7.79157 6.89404 7.78695C6.9247 7.78233 6.95956 7.77393 6.97174 7.76889L7.04356 7.70799L7.0948 7.62903L7.12252 7.57821L7.162 7.52235C7.1683 7.50429 7.13596 7.48665 7.09144 7.48245C7.0465 7.47909 7.02088 7.46439 7.03558 7.44969L7.02088 7.40391L6.96628 7.36905L6.99106 7.34301L7.05364 7.29555L7.07464 7.21995L7.10404 7.18047L7.18468 7.13763L7.23214 7.10823L7.21744 7.15401L7.18216 7.21113L7.17208 7.25565L7.21534 7.28673L7.29892 7.26867C7.32748 7.25313 7.37914 7.24389 7.41358 7.24725C7.4476 7.25061 7.48498 7.24515 7.49548 7.23423L7.5568 7.21449C7.57906 7.21449 7.62694 7.20021 7.66348 7.18341C7.69918 7.16577 7.7416 7.15905 7.75672 7.16829C7.77226 7.17753 7.75756 7.19895 7.72438 7.21617C7.69078 7.23339 7.66684 7.25985 7.67146 7.27539C7.67608 7.29093 7.71178 7.30857 7.75042 7.31487C7.78906 7.32117 7.83484 7.33293 7.85164 7.34091L7.87684 7.37199L7.92052 7.43121L7.99486 7.50639C8.00704 7.52445 8.04652 7.54839 8.0818 7.55889C8.11708 7.56939 8.19898 7.53411 8.2645 7.47993C8.32876 7.42575 8.38084 7.39467 8.37874 7.41105L8.35102 7.47531L8.3149 7.56057L8.31658 7.64247L8.3821 7.67355L8.46232 7.68699L8.51146 7.72437L8.5711 7.75923C8.59168 7.76469 8.70508 7.75881 8.82394 7.74621C8.94196 7.73319 9.13852 7.73823 9.26032 7.75755C9.38254 7.77603 9.49636 7.77771 9.51358 7.76091L9.57448 7.75251L9.59758 7.81341L9.6337 7.87725C9.65722 7.89195 9.75844 7.90707 9.8584 7.91211C9.95878 7.91673 10.0474 7.91379 10.0554 7.90539L10.0999 7.87263L10.1457 7.83777C10.1545 7.82895 10.1894 7.81467 10.223 7.80669C10.2561 7.79871 10.2977 7.79493 10.3149 7.79871L10.3708 7.81677L10.4086 7.84113L10.3939 7.87263L10.3414 7.91841L10.3162 7.91547L10.3015 7.85163L10.2578 7.85457L10.2267 7.92219L10.2179 7.97301L10.1873 8.01711C10.1734 8.03097 10.2847 8.10069 10.4351 8.17167C10.5854 8.24265 10.7564 8.34975 10.816 8.40939C10.8756 8.46903 10.9441 8.52279 10.9685 8.52909C10.9928 8.53581 11.063 8.57613 11.1239 8.61939C11.1856 8.66265 11.2515 8.69457 11.2704 8.68995L11.3099 8.66055L11.3213 8.63115C11.325 8.62653 11.3574 8.62569 11.3935 8.62905C11.4296 8.63283 11.462 8.62611 11.4662 8.61435L11.4313 8.54085L11.3641 8.48835L11.3246 8.45727L11.2935 8.40939C11.2839 8.40057 11.2478 8.39133 11.2133 8.38965C11.1789 8.38797 11.1512 8.36445 11.1512 8.33715L11.2003 8.30397L11.2776 8.32077L11.3448 8.36193L11.4069 8.40309L11.4481 8.35563L11.4972 8.35059L11.5203 8.40813C11.5157 8.41611 11.525 8.45181 11.5401 8.48709C11.5556 8.52195 11.5686 8.56353 11.5695 8.57907C11.5707 8.59461 11.5985 8.61477 11.6316 8.62485C11.6652 8.63451 11.7081 8.65509 11.7274 8.67063L11.7896 8.69877L11.8274 8.68071L11.8366 8.62149C11.8366 8.59881 11.8043 8.49633 11.7644 8.39343C11.7249 8.29053 11.6938 8.19309 11.6955 8.17671L11.7215 8.12421L11.745 8.15193C11.745 8.18007 11.7551 8.23089 11.7681 8.26533C11.7807 8.29935 11.8118 8.35185 11.8366 8.38167C11.8622 8.41149 11.8832 8.44761 11.8845 8.46189L11.9072 8.51607L11.9353 8.56185L11.9731 8.60595C11.9903 8.62065 12.0395 8.64711 12.0831 8.66517C12.1268 8.68323 12.1747 8.68743 12.1898 8.67483L12.2423 8.61225L12.2801 8.57277L12.2931 8.59881L12.2553 8.65635L12.2175 8.73027L12.2503 8.78613L12.2994 8.79915L12.3162 8.84871L12.3389 8.89785L12.3801 8.88651L12.4196 8.87181L12.4578 8.88483L12.4737 8.91423L12.4431 8.93229C12.4254 8.93481 12.4456 8.97177 12.4872 9.01419C12.5288 9.05661 12.5456 9.09147 12.525 9.09147L12.4691 9.12255L12.4838 9.17673L12.5069 9.20613L12.4691 9.21579L12.4414 9.24183L12.4662 9.28131C12.4796 9.29013 12.5212 9.30063 12.5577 9.30441C12.5951 9.30819 12.6333 9.31995 12.643 9.33045L12.6745 9.38463C12.6816 9.40395 12.7677 9.49929 12.8648 9.59799C12.9622 9.69627 13.0273 9.78573 13.0092 9.79707L12.9714 9.82983L12.963 9.88065L12.9416 9.93483L12.9055 9.97893L12.8874 10.0331L12.9038 10.0856L12.9513 10.076L12.9924 10.0184L13.0071 9.96423L13.0416 9.91173C13.058 9.90081 13.1126 9.88737 13.1634 9.88233C13.2138 9.87687 13.2768 9.90375 13.3024 9.94155C13.3284 9.97935 13.3532 10.0226 13.357 10.0382C13.3608 10.0533 13.362 10.0991 13.3604 10.1381C13.3583 10.178 13.3503 10.2204 13.3423 10.2339L13.3368 10.2729L13.3767 10.2767L13.4309 10.2385L13.4687 10.2255L13.4574 10.262L13.4099 10.3015L13.3688 10.3372L13.3503 10.3868L13.365 10.4225L13.4246 10.4321L13.4952 10.4145L13.559 10.3502L13.6132 10.2666L13.6296 10.2108L13.6082 10.1495L13.5851 10.0692L13.6048 9.98607L13.6426 9.92013L13.6703 9.90879L13.6833 9.94491L13.6749 9.99909L13.6636 10.055L13.672 10.1171L13.6997 10.1369L13.7342 10.1091L13.7669 10.1024L13.7816 10.1663L13.7472 10.2713L13.7241 10.3355L13.7669 10.3603L13.7652 10.3851L13.6964 10.4195L13.6455 10.4682L13.6359 10.5178L13.6229 10.5489L13.6027 10.5749L13.6279 10.6022L13.6674 10.6241C13.6749 10.6304 13.6825 10.6606 13.685 10.6913C13.6884 10.7219 13.7123 10.7471 13.7396 10.7471L13.8169 10.7585L13.8077 10.7912L13.7581 10.842L13.7203 10.8714L13.6909 10.8845L13.6875 10.9206C13.6875 10.9332 13.7136 10.9672 13.7451 10.9962C13.7766 11.0252 13.8194 11.0735 13.8404 11.1029C13.8614 11.1327 13.8891 11.1537 13.9026 11.1491L13.924 11.1045C13.9223 11.0848 13.9719 11.0205 14.034 10.9617C14.0962 10.9029 14.1542 10.8551 14.1626 10.8551L14.1806 10.8782L14.171 10.9143L14.184 10.9403L14.2163 10.9601L14.2134 10.9764L14.1773 10.9962L14.1512 11.0273L14.1596 11.0672L14.1794 11.0982C14.1857 11.1054 14.2214 11.1142 14.2579 11.1176C14.2953 11.1213 14.3369 11.1285 14.3503 11.1339L14.3915 11.1638L14.4045 11.2066L14.3633 11.1969L14.2911 11.1692L14.2314 11.1919L14.1861 11.1974L14.1386 11.1856L14.1109 11.2108L14.1172 11.2469L14.1684 11.2898C14.192 11.3061 14.2176 11.3435 14.226 11.3733C14.2344 11.4027 14.252 11.433 14.2655 11.4384L14.3276 11.4502L14.3688 11.488L14.3591 11.5569L14.3461 11.6161L14.3789 11.6291L14.4314 11.6144L14.4461 11.6556L14.4591 11.7081C14.4687 11.7148 14.5414 11.6661 14.6199 11.6018C14.6989 11.5367 14.7636 11.5056 14.7648 11.5325L14.743 11.5997L14.7123 11.6409C14.7077 11.6535 14.735 11.6652 14.7728 11.6669C14.811 11.669 14.8488 11.6741 14.8564 11.6783L14.8535 11.703L14.8354 11.7425L14.8241 11.79L14.806 11.7954L14.7762 11.7606L14.7107 11.7442L14.6351 11.7883L14.5758 11.8425L14.5149 11.8736L14.4641 11.9231L14.4528 11.9949L14.4759 12.0609L14.5053 12.0693L14.525 12.0432L14.5347 12.0021L14.5511 11.9609L14.6019 11.9458L14.6418 11.9706C14.6435 11.9844 14.6913 11.9916 14.748 11.987C14.8052 11.9823 14.8476 11.9907 14.8434 12.0054L14.7993 12.0449C14.7795 12.0521 14.7363 12.0596 14.7027 12.0613C14.6695 12.063 14.6355 12.0714 14.6275 12.0806L14.5632 12.1251L14.5435 12.1646C14.5599 12.1713 14.6019 12.1751 14.6372 12.1743C14.6724 12.1734 14.6972 12.1772 14.6913 12.1827C14.6859 12.1881 14.6565 12.1999 14.6258 12.2087C14.5952 12.2175 14.5708 12.2373 14.5721 12.2528L14.5914 12.2873C14.6015 12.291 14.6603 12.291 14.7224 12.2873C14.7846 12.2835 14.8362 12.2852 14.8362 12.2906L14.7951 12.3137C14.772 12.3213 14.7279 12.3267 14.6964 12.3267C14.6649 12.3267 14.6359 12.3356 14.6325 12.3465C14.6292 12.3574 14.6535 12.3717 14.6871 12.3776C14.7203 12.3843 14.7741 12.3881 14.8068 12.3872C14.8392 12.3864 14.89 12.3792 14.9202 12.3725C14.9505 12.3658 14.982 12.3595 14.9925 12.3595L15.0282 12.3792L15.0534 12.4317L15.0748 12.4792H15.1273L15.1924 12.4317L15.2273 12.3725L15.252 12.3284L15.2798 12.32L15.2882 12.3704L15.2718 12.4368L15.239 12.4779L15.1832 12.5052L15.1273 12.538C15.1176 12.5498 15.1386 12.5598 15.1748 12.5598C15.2109 12.5598 15.2403 12.5535 15.2403 12.5464L15.2663 12.5338L15.3024 12.5582L15.3453 12.5829C15.3633 12.5829 15.4049 12.5699 15.4377 12.5535C15.47 12.5372 15.4961 12.4981 15.4948 12.4666C15.494 12.4351 15.4986 12.404 15.5049 12.3977L15.5229 12.3864L15.5376 12.396C15.5418 12.4015 15.546 12.433 15.546 12.4666C15.546 12.5002 15.5297 12.5464 15.5099 12.5699L15.4902 12.6296L15.5376 12.6459L15.5901 12.6279L15.633 12.6094L15.641 12.6291L15.6149 12.69C15.6078 12.7127 15.6015 12.7593 15.6002 12.7934C15.5998 12.8282 15.6187 12.8681 15.6435 12.8824L15.7119 12.9118L15.7733 12.9017L15.8174 12.8589L15.8602 12.7787L15.9014 12.7543L15.8997 12.8177L15.8669 12.8937C15.8535 12.9147 15.8749 12.9433 15.9144 12.9572C15.9543 12.9719 15.9564 12.9887 15.9194 12.9954C15.882 13.0017 15.856 13.021 15.8602 13.0382C15.8644 13.0554 15.8942 13.0706 15.9257 13.0727C15.9572 13.0743 16.0026 13.0601 16.0257 13.0416L16.0962 12.9983L16.1126 13.0382L16.116 13.1004C16.1244 13.1088 16.1576 13.1088 16.1899 13.1004C16.2227 13.092 16.2386 13.0983 16.226 13.1134L16.1773 13.1546L16.1492 13.1924L16.1689 13.2381L16.2214 13.2709L16.2655 13.3087L16.3314 13.386C16.36 13.4137 16.3974 13.5078 16.415 13.5947C16.4322 13.6812 16.4411 13.8051 16.4348 13.8698C16.428 13.9353 16.4154 14.0084 16.4066 14.0328C16.3978 14.0576 16.3688 14.1042 16.3428 14.1361C16.3167 14.1689 16.2806 14.1953 16.2626 14.1953L16.2151 14.1563L16.2201 14.0983L16.2659 14.0802L16.3218 14.071C16.3382 14.0651 16.3529 14.0328 16.3545 13.9983C16.3566 13.9643 16.3499 13.9206 16.3398 13.9017L16.2873 13.9038L16.2336 13.9757L16.197 14.0282L16.166 14.0269L16.163 13.979C16.1689 13.9626 16.2012 13.9198 16.2348 13.8837C16.2684 13.848 16.2957 13.8009 16.2957 13.7804L16.2777 13.7132C16.268 13.6968 16.1399 13.6787 15.9938 13.672C15.8472 13.6653 15.7128 13.6514 15.6947 13.6405L15.6359 13.6212C15.6212 13.6212 15.6099 13.6535 15.6099 13.693C15.6099 13.7329 15.6229 13.7787 15.6389 13.7951C15.6552 13.811 15.6872 13.8816 15.7094 13.9509C15.7325 14.0202 15.7636 14.0966 15.7787 14.1201L15.8312 14.1836L15.8707 14.2134L15.8447 14.2608L15.8119 14.3314C15.8165 14.3486 15.8195 14.3881 15.8186 14.4188C15.8174 14.4486 15.8249 14.4847 15.835 14.4969C15.8447 14.5099 15.8984 14.5271 15.9547 14.5351C16.011 14.5435 16.0652 14.5595 16.0761 14.5716C16.087 14.583 16.0551 14.588 16.0055 14.5821C15.956 14.5771 15.9005 14.5775 15.8825 14.5842C15.8644 14.591 15.8405 14.843 15.83 15.1458C15.819 15.4482 15.7733 15.7787 15.7283 15.8808C15.6834 15.9833 15.6594 16.0904 15.6758 16.1189C15.6922 16.1479 15.7023 16.2038 15.6985 16.2437C15.6951 16.2836 15.696 16.3256 15.7006 16.3373L15.7203 16.3718L15.7434 16.3919L15.7598 16.4079L15.7661 16.4247L15.7682 16.436L15.7695 16.4453L15.7716 16.4566L15.7733 16.47L15.7749 16.486L15.7766 16.5007L15.7783 16.5154L15.7926 16.565C15.8014 16.5868 15.8006 16.6813 15.7913 16.7762C15.7825 16.8716 15.7653 16.9627 15.7535 16.9803L15.7254 17.0391C15.722 17.0547 15.7203 17.0921 15.7224 17.1227C15.7241 17.1534 15.767 17.2252 15.8178 17.2823C15.8682 17.3386 15.9089 17.41 15.9077 17.4394C15.9072 17.4692 15.9152 17.5221 15.9261 17.5557C15.9366 17.5906 15.9484 17.6486 15.9509 17.6843C15.9534 17.7204 16.0093 17.8023 16.074 17.8665C16.1387 17.9308 16.2 18.0085 16.2084 18.0392C16.2172 18.0698 16.2424 18.1148 16.2642 18.1387L16.3348 18.1715L16.3877 18.1274C16.3991 18.1097 16.4667 18.0942 16.5368 18.0929C16.607 18.0921 16.6826 18.1068 16.704 18.1261C16.7258 18.145 16.6788 18.1589 16.6007 18.1568C16.5217 18.1551 16.4549 18.1647 16.4516 18.1782L16.4789 18.2441L16.5137 18.3197L16.4877 18.3458L16.4348 18.3092L16.3877 18.2735C16.376 18.2689 16.3701 18.2928 16.3747 18.326C16.3793 18.3592 16.394 18.4088 16.407 18.4356C16.4209 18.4634 16.4776 18.5175 16.5339 18.5574C16.5897 18.5973 16.6372 18.6435 16.6389 18.6608L16.617 18.7313L16.5994 18.812C16.6032 18.8346 16.6326 18.8741 16.6649 18.9006C16.6973 18.927 16.7372 18.9724 16.7535 19.0022C16.7695 19.0316 16.8216 19.0942 16.8682 19.14C16.9148 19.1853 16.961 19.2387 16.9703 19.258L17.0093 19.3193L17.0421 19.3752C17.048 19.3911 17.0534 19.4411 17.0555 19.4869C17.0572 19.5314 17.074 19.5751 17.0933 19.5835C17.1118 19.5911 17.1933 19.6041 17.2735 19.6108C17.3537 19.6188 17.4352 19.6293 17.4545 19.636L17.5381 19.6965L17.6234 19.7637C17.6431 19.7738 17.6901 19.7822 17.7284 19.7822C17.7666 19.7822 17.8985 19.8586 18.0219 19.9527C18.1458 20.0463 18.2559 20.1438 18.2668 20.1698L18.2865 20.2677C18.2865 20.2962 18.329 20.4021 18.3802 20.5025C18.4319 20.6028 18.4789 20.7108 18.4852 20.7423C18.4919 20.7734 18.5188 20.8229 18.5461 20.8506C18.573 20.8788 18.6057 20.9262 18.6183 20.9556C18.6309 20.9859 18.6532 21.0262 18.6679 21.0464L18.6986 21.1346L18.7418 21.2253L18.783 21.3072C18.7847 21.3315 18.7977 21.3849 18.8124 21.4252C18.8267 21.4655 18.8913 21.5327 18.9552 21.5743C19.0194 21.6159 19.1475 21.7352 19.2408 21.8406C19.334 21.9447 19.413 22.0514 19.4163 22.0766L19.4042 22.1405L19.3958 22.2018L19.4352 22.2576L19.4718 22.308L19.46 22.3458L19.4126 22.3215L19.3336 22.2816C19.3101 22.2736 19.2588 22.2669 19.2206 22.2669C19.1811 22.2669 19.1496 22.2803 19.1496 22.2963C19.1496 22.3131 19.1711 22.3513 19.1971 22.3824C19.2231 22.4122 19.2899 22.4647 19.3449 22.4979C19.4 22.5315 19.4613 22.5827 19.4814 22.6117L19.557 22.6709H19.6389L19.7078 22.6382L19.7339 22.6478C19.7339 22.6676 19.8128 22.7541 19.9094 22.8402C20.0056 22.9259 20.0938 23.0107 20.1047 23.0283C20.1156 23.0472 20.1253 23.1056 20.1266 23.159C20.127 23.2119 20.1198 23.2719 20.1098 23.2913L20.0917 23.3585C20.0917 23.3761 20.1627 23.4454 20.2496 23.513C20.3361 23.5802 20.4319 23.6457 20.463 23.6575C20.4936 23.6688 20.5814 23.7415 20.6583 23.8184C20.7351 23.8948 20.8065 23.9864 20.8175 24.0216C20.8284 24.0569 20.8553 24.1014 20.8771 24.1216H20.959C20.9821 24.1014 21.017 24.0611 21.0359 24.0309C21.0548 24.0015 21.0329 23.9145 20.9867 23.8373C20.9409 23.7608 20.8733 23.6856 20.8376 23.6701C20.8015 23.655 20.7511 23.6462 20.7259 23.6508L20.6486 23.6256C20.6314 23.6079 20.6159 23.5567 20.6142 23.5122C20.6121 23.4681 20.5222 23.2577 20.4138 23.0447C20.3055 22.8318 20.1421 22.5655 20.051 22.4538C19.9598 22.3421 19.875 22.2131 19.8624 22.1682C19.8498 22.1228 19.7066 21.9347 19.5436 21.7494C19.3811 21.5642 19.2399 21.3966 19.2303 21.3769C19.2206 21.3567 19.2076 21.2904 19.2026 21.2286C19.1971 21.1673 19.1757 21.0816 19.1551 21.038C19.1345 20.9951 19.1198 20.9078 19.1223 20.8443C19.1249 20.7818 19.119 20.7133 19.1093 20.694L19.0997 20.6499C19.1039 20.6453 19.1648 20.6772 19.2341 20.7217C19.3038 20.7658 19.3785 20.7981 19.4004 20.7923L19.4756 20.783L19.5579 20.8288C19.5831 20.854 19.6406 20.8901 19.6856 20.909C19.7309 20.9279 19.7683 20.9897 19.7696 21.0455C19.7704 21.1014 19.7969 21.182 19.8288 21.2244C19.8607 21.2669 19.8956 21.3429 19.9077 21.3929C19.9195 21.4433 20.0631 21.6579 20.2278 21.8691C20.3924 22.0804 20.5398 22.2438 20.5562 22.232L20.6285 22.2366C20.652 22.2513 20.6637 22.29 20.6545 22.3219C20.6457 22.3547 20.6675 22.4105 20.7036 22.445C20.7398 22.4802 20.8002 22.5185 20.838 22.529C20.8763 22.5399 20.9162 22.5739 20.9267 22.605C20.9376 22.6356 20.9733 22.6692 21.0056 22.6806C21.0375 22.6907 21.0774 22.7133 21.0938 22.7293L21.1434 22.8112L21.1287 22.9015L21.0892 22.9868L21.1249 23.0657C21.148 23.0829 21.198 23.106 21.237 23.117C21.2757 23.127 21.324 23.1552 21.3437 23.1787C21.3639 23.2022 21.416 23.2421 21.4601 23.2673C21.5042 23.2934 21.5495 23.3295 21.5604 23.3492C21.5705 23.3694 21.584 23.4118 21.5898 23.4446C21.5949 23.4769 21.668 23.5521 21.752 23.6105C21.836 23.6697 21.954 23.781 22.0149 23.8587C22.0754 23.9368 22.1581 24.0258 22.1988 24.059C22.2396 24.0922 22.3068 24.1695 22.3479 24.2316C22.3895 24.2934 22.4408 24.4022 22.4613 24.4727C22.4823 24.5429 22.5147 24.6143 22.534 24.6302L22.5844 24.6987C22.5932 24.7209 22.5957 24.7634 22.5899 24.7944C22.5831 24.8251 22.5638 24.8751 22.5466 24.9062C22.5298 24.9368 22.534 24.9717 22.5563 24.9834C22.5794 24.9956 22.5647 25.0334 22.5235 25.0687C22.4828 25.104 22.4739 25.1804 22.5042 25.238C22.5336 25.2955 22.6054 25.3904 22.6629 25.448C22.7209 25.5059 22.8204 25.5685 22.8847 25.5874C22.9485 25.6063 23.0632 25.684 23.1388 25.7596C23.2148 25.8356 23.3921 25.9263 23.5328 25.9616C23.6735 25.9969 23.8662 26.0851 23.9612 26.1582C24.0565 26.2317 24.1825 26.3052 24.2421 26.3228C24.3018 26.34 24.4017 26.3841 24.4652 26.4211C24.5282 26.4585 24.6546 26.5017 24.7461 26.5177C24.8373 26.5341 24.9322 26.566 24.9578 26.5883C24.983 26.6109 25.0603 26.6588 25.1296 26.6949C25.1993 26.7315 25.3602 26.7861 25.4879 26.8167C25.6151 26.8474 25.7394 26.8718 25.7638 26.8705C25.7882 26.8701 25.9032 26.8302 26.0192 26.7823C26.1359 26.734 26.243 26.6828 26.2573 26.6676L26.3085 26.6235L26.372 26.6382C26.3938 26.6546 26.4593 26.6756 26.5185 26.6823C26.5773 26.6895 26.6399 26.7029 26.658 26.7117C26.6756 26.7206 26.7491 26.7789 26.8205 26.8411C26.8919 26.9033 26.9868 26.9373 27.0322 26.9171C27.0776 26.897 27.1309 26.8625 27.1519 26.8411C27.1729 26.8205 27.3338 26.7882 27.5102 26.7693C27.6861 26.75 27.8546 26.7239 27.8844 26.7096C27.9142 26.6962 27.9386 26.6718 27.9386 26.6559C27.9386 26.6399 27.8596 26.5526 27.763 26.4618C27.6664 26.3715 27.6105 26.2976 27.6383 26.2976L27.7105 26.2535L27.7235 26.1716L27.7151 26.091C27.7151 26.0679 27.8575 26.0486 28.0322 26.0486C28.2061 26.0486 28.3602 26.0364 28.3749 26.0225C28.3892 26.0078 28.4379 25.9965 28.4833 25.9965C28.5287 25.9965 28.5744 25.9692 28.5849 25.9352C28.5959 25.902 28.6257 25.8713 28.6505 25.8667L28.6962 25.8155L28.7046 25.7483L28.7504 25.7239C28.7714 25.7239 28.7882 25.7483 28.7882 25.7777C28.7882 25.8075 28.7979 25.8415 28.8096 25.8533L28.8311 25.8915L28.8529 25.886C28.8642 25.8747 28.8928 25.8108 28.9146 25.7449C28.9373 25.679 28.9583 25.5647 28.9608 25.4904C28.9634 25.4169 28.9743 25.3354 28.9852 25.3102C28.9961 25.2846 29.0087 25.2396 29.0133 25.2102C29.018 25.1804 29.031 25.1409 29.0427 25.1233L29.0936 25.0611L29.1461 24.9952L29.1952 24.933C29.2095 24.9183 29.2179 24.8692 29.2133 24.823C29.2086 24.7776 29.1939 24.7243 29.1805 24.705C29.1671 24.6865 29.1293 24.6798 29.0965 24.6924C29.0642 24.7037 29.0121 24.7054 28.9806 24.697C28.9487 24.6882 28.8634 24.6781 28.7899 24.6756C28.7168 24.6731 28.6156 24.6802 28.5652 24.6924C28.5148 24.7037 28.4468 24.7134 28.414 24.7134C28.3817 24.7134 28.3308 24.7268 28.301 24.7428C28.2712 24.7587 28.2174 24.7688 28.1813 24.7642C28.1452 24.7596 28.0704 24.7974 28.015 24.8478C27.96 24.8986 27.9113 25.0275 27.9066 25.1355C27.902 25.2426 27.8873 25.3367 27.8739 25.3438L27.8445 25.3782C27.842 25.3896 27.8264 25.4236 27.81 25.4534C27.7941 25.4837 27.7806 25.5227 27.7806 25.5408L27.7428 25.6113C27.7223 25.6323 27.6525 25.6773 27.5887 25.7113C27.5244 25.7457 27.4106 25.7739 27.3354 25.7739C27.2607 25.7739 27.1826 25.7831 27.1616 25.7953C27.141 25.8066 26.9852 25.8503 26.8155 25.8919C26.6458 25.9335 26.4887 25.9675 26.4656 25.9675C26.4429 25.9675 26.4089 25.9314 26.3904 25.8885C26.3711 25.8449 26.3333 25.8096 26.3064 25.8096L26.2275 25.7835C26.2111 25.7688 26.1422 25.7575 26.0733 25.7575C26.0045 25.7575 25.9343 25.7084 25.9175 25.647C25.9003 25.5865 25.8646 25.516 25.8386 25.49C25.8125 25.4639 25.7798 25.4064 25.7663 25.3619C25.7533 25.3178 25.676 25.2018 25.5962 25.1061C25.5156 25.0095 25.4362 24.8831 25.4202 24.8251C25.4039 24.7675 25.364 24.6751 25.3316 24.6201C25.2993 24.5651 25.269 24.5017 25.2644 24.479C25.2598 24.4563 25.2619 24.2362 25.269 23.9897C25.2766 23.7436 25.2863 23.5265 25.2909 23.5088L25.3123 23.4509C25.3194 23.4374 25.3215 23.3828 25.3173 23.3299C25.3127 23.2766 25.3291 23.2329 25.3535 23.2329L25.411 23.2199L25.4341 23.1669L25.4635 23.1098L25.4832 23.0426C25.4832 23.0153 25.4333 22.9846 25.3715 22.9754C25.4328 22.9846 25.4832 22.9779 25.4832 22.9586C25.4832 22.9401 25.4627 22.878 25.4375 22.8209C25.4123 22.7637 25.3917 22.7045 25.3917 22.6886L25.3736 22.6327L25.3703 22.5768L25.3883 22.5256L25.3736 22.5042L25.3358 22.4974L25.3047 22.4538L25.3278 22.4303L25.3837 22.4462C25.395 22.4475 25.4265 22.4122 25.4526 22.3681C25.4786 22.324 25.4845 22.282 25.4656 22.2753L25.4459 22.2492L25.4933 22.2299L25.5588 22.1904C25.5769 22.1715 25.6332 22.1316 25.6836 22.1031C25.734 22.0745 25.7793 22.0472 25.7835 22.0426L25.7688 22.0342L25.7361 21.9943L25.7445 21.9372L25.794 21.9124L25.8369 21.9305L25.8482 21.9876C25.8482 22.0056 25.8919 21.9977 25.9448 21.9695C25.9982 21.9418 26.0859 21.8813 26.1401 21.8351C26.1943 21.7889 26.256 21.7427 26.2779 21.7318L26.34 21.6848L26.3501 21.6436L26.3169 21.6247L26.2892 21.5991L26.2842 21.5495L26.327 21.5151L26.3795 21.5218L26.3976 21.5541L26.3942 21.5924L26.3959 21.6184H26.414L26.4698 21.5802L26.5605 21.5495L26.624 21.5264L26.6618 21.4718L26.6786 21.4571C26.6786 21.4672 26.7155 21.4743 26.7605 21.4739C26.8054 21.4731 26.8529 21.4613 26.8655 21.4479L26.8932 21.4197L26.8995 21.4332L26.9066 21.4626L26.9133 21.476L26.9608 21.497C26.9864 21.5084 27.0704 21.5289 27.1477 21.5424C27.2258 21.5567 27.2972 21.5567 27.3069 21.5424L27.33 21.5L27.3695 21.4819C27.3888 21.4819 27.4287 21.4932 27.4585 21.5079C27.4879 21.5222 27.5257 21.5453 27.5417 21.5588L27.5942 21.5651L27.65 21.5886L27.6962 21.6591L27.7323 21.7062L27.7962 21.741L27.8487 21.7427L27.8688 21.7104L27.8865 21.6852L27.9176 21.6755L27.939 21.6558L27.9717 21.6868L28.0331 21.7217L28.0604 21.6885L28.0457 21.6264L28.031 21.5739C28.031 21.5684 28.0583 21.5789 28.0923 21.597C28.1255 21.615 28.1607 21.6377 28.1712 21.6461L28.2069 21.6722L28.2599 21.7162L28.2993 21.7902L28.3304 21.8036L28.3779 21.7671L28.401 21.7343L28.3943 21.6932C28.3896 21.6831 28.3439 21.652 28.2922 21.6239C28.241 21.5966 28.199 21.5634 28.199 21.552L28.2351 21.4941L28.2712 21.447L28.2418 21.4239L28.1712 21.4109L28.1616 21.3857L28.2053 21.3433L28.2271 21.3236C28.2317 21.3236 28.2716 21.3055 28.3174 21.2841C28.3623 21.2622 28.4568 21.245 28.527 21.2463C28.5975 21.2471 28.6731 21.2547 28.6946 21.2622L28.734 21.2589L28.7504 21.2265L28.7735 21.1883L28.7802 21.1413L28.7966 21.1178L28.8113 21.1438L28.8327 21.1866L28.871 21.2295L28.8886 21.2769L28.897 21.3063L28.902 21.3147L28.9088 21.3202H28.9302L28.9928 21.2761L29.0759 21.232L29.1372 21.2005L29.1914 21.2072C29.2078 21.2265 29.2721 21.24 29.3359 21.2366C29.3989 21.2341 29.456 21.2391 29.4623 21.248L29.5081 21.2858L29.5871 21.3173L29.6396 21.3265L29.6853 21.3647L29.7294 21.4206L29.7391 21.471C29.7412 21.4899 29.7735 21.5096 29.8113 21.5151C29.8496 21.5218 29.8916 21.5239 29.905 21.5205C29.9184 21.5163 29.9802 21.4806 30.0415 21.4403C30.1028 21.3992 30.1637 21.3635 30.1759 21.3597L30.2053 21.3534C30.2087 21.3534 30.2376 21.3651 30.2691 21.3794C30.3011 21.3941 30.3326 21.416 30.3397 21.4286L30.3972 21.4937L30.4565 21.5697C30.4649 21.5877 30.5165 21.6369 30.5715 21.6793C30.6266 21.7226 30.6828 21.7717 30.6963 21.7898C30.7093 21.8078 30.7215 21.8662 30.7223 21.9195C30.7232 21.9729 30.711 22.0632 30.6946 22.1203C30.6782 22.177 30.6652 22.2287 30.6652 22.235L30.6833 22.2656L30.7261 22.2589L30.7509 22.2429L30.7673 22.277L30.7723 22.3395L30.7702 22.4265L30.8017 22.5168L30.8412 22.5642L30.8672 22.5873L30.8907 22.6041L30.9235 22.6134L30.9332 22.6713L30.9642 22.7138L31.0184 22.7024L31.0331 22.7096L31.0218 22.739L31.0071 22.7994L31.0201 22.8633L31.0529 22.9179L31.0806 22.9653L31.1364 23.0031L31.1957 23.0422L31.2137 23.0771L31.2284 23.1199L31.2616 23.164L31.283 23.2329L31.3225 23.2967C31.3439 23.3055 31.3897 23.3005 31.4237 23.2854C31.4586 23.2698 31.4997 23.2467 31.5161 23.2346L31.5619 23.1888C31.5707 23.1758 31.5938 23.1241 31.6127 23.072C31.6316 23.0208 31.6501 22.9145 31.6539 22.836C31.6572 22.757 31.6556 22.6764 31.6488 22.655L31.6392 22.5718C31.64 22.5458 31.6215 22.4979 31.598 22.4647C31.5745 22.4311 31.5333 22.3236 31.506 22.2249C31.4792 22.127 31.4577 22.0187 31.4586 21.9838C31.4594 21.9498 31.4309 21.8767 31.3947 21.8217C31.3586 21.7662 31.3002 21.644 31.265 21.5491C31.2297 21.4542 31.2003 21.3614 31.199 21.342C31.1982 21.3236 31.1864 21.2736 31.173 21.2324C31.16 21.1904 31.149 21.1131 31.1503 21.0602C31.1507 21.0069 31.1579 20.951 31.165 20.9367L31.1944 20.8989C31.2032 20.8926 31.2137 20.8611 31.2171 20.8284C31.2209 20.7956 31.2297 20.7679 31.2368 20.7666L31.2536 20.7234L31.2843 20.6709L31.3301 20.6381L31.3532 20.602L31.3809 20.5575L31.4027 20.5088L31.4078 20.4689L31.4225 20.4605L31.4405 20.4768L31.4699 20.4836L31.501 20.4529L31.5191 20.413L31.5552 20.4037L31.6043 20.3949C31.6148 20.3912 31.6509 20.3651 31.6845 20.3361C31.7177 20.3072 31.7517 20.2803 31.7601 20.2769L31.803 20.2475L31.8555 20.2194L31.8983 20.195L31.9277 20.132C31.9344 20.1089 31.9937 20.0371 32.0609 19.9733C32.1272 19.909 32.1919 19.8565 32.2032 19.8565L32.2612 19.8439L32.325 19.8326L32.3826 19.8258C32.3985 19.8212 32.4296 19.7872 32.4515 19.7502C32.4733 19.7129 32.5174 19.6625 32.5497 19.6364C32.5821 19.6112 32.6157 19.578 32.6237 19.5625C32.6321 19.5474 32.7064 19.5281 32.7896 19.5201C32.8727 19.5117 32.9487 19.5008 32.9588 19.4949L32.9832 19.4768L32.9962 19.4445L32.9882 19.4075C32.9798 19.4016 32.9445 19.3991 32.9093 19.4029C32.874 19.4063 32.8622 19.3916 32.8832 19.3706L32.9227 19.2887L32.908 19.2307L32.9114 19.1963L32.9542 19.1816L32.9903 19.2139L33.0151 19.2538L33.0424 19.2685L33.0722 19.2651L33.1163 19.2328L33.1638 19.1748L33.1999 19.124L33.2259 19.0698V19.0283L33.1768 19.019L33.1193 19.0421L33.0962 19.0644L33.0831 19.0329L33.0663 18.9972C33.0613 18.9913 33.0185 18.9825 32.9714 18.9758C32.9244 18.9695 32.8815 18.9501 32.8757 18.9325L32.8824 18.9262L32.9252 18.9556H32.9714L33.0273 18.9275L33.0731 18.8947H33.0962L33.1356 18.9035L33.1881 18.9279L33.2079 18.9199L33.1818 18.8393L33.1671 18.7653L33.1541 18.7128L33.1411 18.6536L33.1197 18.6045L33.0575 18.5978L32.9949 18.6192C32.9807 18.6263 32.937 18.6057 32.8983 18.573C32.8597 18.5411 32.8169 18.51 32.803 18.5045L32.7526 18.4701C32.7379 18.4566 32.7518 18.4533 32.7837 18.4634C32.8148 18.473 32.8626 18.4995 32.8904 18.5205L32.9702 18.5604L32.9996 18.544L32.987 18.51L32.9588 18.4785L32.9294 18.444L32.9479 18.4386L32.9874 18.4554L33.0021 18.4424L33.0088 18.3966L32.966 18.3147L32.8702 18.2273L32.7996 18.1622L32.7618 18.1211L32.7324 18.0665L32.7077 18.019L32.6732 17.9862L32.6665 17.9304L32.6925 17.8875C32.7001 17.88 32.7144 17.8434 32.7236 17.8056C32.7337 17.7674 32.7442 17.7435 32.7467 17.7515C32.7497 17.7594 32.748 17.7909 32.7434 17.8203C32.7387 17.8502 32.7308 17.8842 32.7257 17.8959L32.7169 17.9371C32.7182 17.948 32.7606 17.9808 32.8122 18.0098C32.8639 18.0383 32.9147 18.0551 32.9256 18.0476C32.9366 18.0392 32.9387 17.961 32.9311 17.8733C32.9227 17.7859 32.9294 17.6893 32.9458 17.6582C32.9618 17.6276 33.0008 17.5784 33.0327 17.5478C33.0642 17.5184 33.0945 17.4843 33.0999 17.4726L33.1293 17.4562L33.1487 17.4759L33.1277 17.5352L33.0865 17.6036C33.0756 17.6179 33.0613 17.6536 33.0554 17.6843C33.0487 17.7149 33.0458 17.7481 33.047 17.7582L33.0684 17.7993L33.0928 17.8539L33.0735 17.893L33.0474 17.9178L33.0638 17.969L33.0949 18.0114L33.1277 18.0366L33.1587 18.082L33.1671 18.1379L33.2016 18.171L33.2411 18.187C33.2411 18.1929 33.2159 18.2483 33.1852 18.3122C33.1545 18.3747 33.1293 18.4411 33.1293 18.4583L33.1373 18.4894L33.1508 18.4848C33.1533 18.4814 33.1739 18.4449 33.1965 18.4025C33.2192 18.3596 33.2646 18.2954 33.2982 18.2597C33.3318 18.2235 33.3599 18.187 33.362 18.179C33.3641 18.171 33.3809 18.1379 33.3998 18.1051C33.4187 18.0732 33.4389 18.0308 33.4439 18.0114C33.4494 17.9925 33.4532 17.9531 33.4523 17.9228C33.4515 17.8934 33.4141 17.8019 33.3687 17.72C33.3238 17.6376 33.2839 17.536 33.2801 17.4948C33.2763 17.4528 33.3179 17.3915 33.3721 17.3583C33.4263 17.3252 33.4662 17.305 33.4611 17.3142C33.4553 17.3231 33.4238 17.3508 33.3902 17.3751C33.357 17.3999 33.3234 17.4293 33.3162 17.4407C33.3087 17.4528 33.315 17.4881 33.3293 17.5196C33.3435 17.5515 33.3666 17.5864 33.3801 17.5973L33.4439 17.628L33.488 17.6561L33.5048 17.691L33.5241 17.717L33.5405 17.7183L33.5624 17.691L33.585 17.6414L33.6165 17.6003L33.6636 17.5545L33.7077 17.507L33.7308 17.4776L33.7509 17.4461L33.7707 17.4071C33.7736 17.3945 33.7976 17.3399 33.8249 17.2853C33.8513 17.2315 33.8748 17.1773 33.8753 17.1656L33.8719 17.1395L33.8446 17.1248L33.8013 17.1152L33.7635 17.0988L33.7455 17.0694C33.7455 17.0618 33.769 17.0295 33.7967 16.9976C33.8244 16.9648 33.8429 16.948 33.8379 16.9593V17.0135C33.8433 17.032 33.8803 17.0467 33.9198 17.0467C33.9593 17.0467 34.0151 17.037 34.0428 17.0249C34.0706 17.0135 34.1256 17.0009 34.1642 16.9988C34.2033 16.9959 34.3095 16.9673 34.4003 16.9346C34.4918 16.9026 34.559 16.8758 34.5498 16.8758L34.5414 16.8669L34.5645 16.851C34.5725 16.8464 34.4301 16.859 34.2474 16.8783C34.0651 16.8984 33.9131 16.9119 33.9093 16.9085C33.9055 16.9043 34.0034 16.8653 34.126 16.8212C34.2486 16.7771 34.4171 16.7393 34.5006 16.7372C34.5834 16.7355 34.6611 16.73 34.6728 16.7258L34.7006 16.7145L34.7447 16.6771L34.7808 16.6049L34.7825 16.5616L34.8022 16.5603L34.8333 16.5994L34.8791 16.6359C34.8963 16.6359 34.9362 16.6183 34.9677 16.596C34.9992 16.5742 35.034 16.557 35.045 16.557L35.0534 16.5666L35.0618 16.5939L35.1029 16.5906C35.1147 16.5792 35.1563 16.5662 35.1949 16.5633C35.234 16.5591 35.2713 16.549 35.2768 16.5398L35.2886 16.5041L35.2592 16.4528L35.2373 16.4415L35.2575 16.4747L35.2638 16.5053L35.2445 16.5314L35.1987 16.5414L35.1479 16.533L35.105 16.5015L35.0618 16.4423L35.0403 16.3848L35.0156 16.3424L34.9744 16.3188L34.94 16.3125L34.9236 16.2991L34.9496 16.2743L34.9954 16.2332L35.0135 16.1756L34.9988 16.0937L34.9904 16.0332L34.9954 16.0143L34.9971 16.008L35.0004 15.9992C35.0017 15.9959 35.0378 15.9467 35.0807 15.8896C35.1243 15.8325 35.1626 15.7737 35.1659 15.7581L35.2138 15.6943L35.2806 15.6636L35.3238 15.6552L35.3448 15.6271L35.3385 15.5998L35.3272 15.5717L35.3448 15.557L35.3684 15.575L35.4112 15.5948L35.4767 15.5864L35.5359 15.5767L35.5754 15.5603L35.5838 15.5309L35.6132 15.4885L35.6477 15.4503L35.651 15.4402L35.6498 15.4213L35.659 15.3751L35.6918 15.3318L35.7098 15.3373L35.717 15.373L35.743 15.4011L35.7888 15.4095L35.8299 15.3864L35.853 15.378L35.885 15.389L35.9261 15.3764L35.9765 15.3608L36.0492 15.3461L36.1017 15.3239L36.1508 15.2823C36.1735 15.2651 36.2243 15.247 36.2642 15.2428C36.3041 15.2382 36.3419 15.2079 36.3478 15.1752C36.3541 15.1433 36.3646 15.1101 36.3709 15.1017L36.4053 15.087C36.4179 15.087 36.4541 15.0769 36.486 15.0635C36.5171 15.0509 36.5687 15.0399 36.6002 15.0391C36.6317 15.0378 36.6586 15.0194 36.6594 14.9979L36.6796 14.94L36.7027 14.966L36.7565 15.0042L36.8258 14.9874L36.8732 14.9727L36.9341 14.9337C36.9522 14.9144 36.9921 14.8854 37.0227 14.8694C37.0534 14.8535 37.0849 14.84 37.0933 14.84L37.1475 14.8157L37.1983 14.7791L37.213 14.7518L37.2017 14.6972L37.2113 14.6884L37.2806 14.7283L37.3243 14.7497C37.3243 14.7564 37.289 14.7854 37.2453 14.8157C37.2021 14.8451 37.1622 14.8829 37.1567 14.8988L37.1584 14.94C37.1647 14.9467 37.2386 14.9454 37.3226 14.9366C37.4066 14.9282 37.5116 14.9274 37.5561 14.9337C37.6002 14.94 37.6322 14.9496 37.6267 14.9547C37.6208 14.9606 37.5864 14.9719 37.549 14.9807C37.512 14.9895 37.4625 15.0231 37.439 15.0546C37.4154 15.0866 37.3823 15.1 37.365 15.0861L37.3159 15.032L37.2815 15.0122L37.2222 15.0282L37.142 15.0534L37.0946 15.0794L37.0584 15.1025C37.0437 15.1101 36.9543 15.1815 36.8598 15.2617C36.7644 15.3415 36.6842 15.4188 36.6809 15.4322L36.6737 15.4797L36.6653 15.5393L36.672 15.6078C36.6804 15.6258 36.7262 15.6657 36.7737 15.6964C36.8216 15.7271 36.8749 15.7535 36.8917 15.7544L36.9362 15.7363L36.9673 15.7014L37.0194 15.6817C37.0387 15.6792 37.0828 15.6531 37.1181 15.6225C37.1534 15.5931 37.1895 15.5528 37.1983 15.5339L37.2277 15.4826L37.2655 15.452L37.3167 15.4062L37.3579 15.347L37.3953 15.3197L37.4381 15.2961L37.4696 15.3008L37.4969 15.339L37.5494 15.344L37.5956 15.3062L37.6267 15.2802L37.6939 15.2747L37.7712 15.2642L37.8249 15.2508L37.8795 15.2277C37.8968 15.2222 37.9383 15.2025 37.9715 15.1836C38.0047 15.1647 38.0597 15.1424 38.0929 15.134C38.1261 15.1256 38.1765 15.1008 38.2046 15.0782C38.2323 15.0559 38.2848 15.0366 38.3214 15.0357C38.3571 15.0345 38.3987 15.0273 38.4134 15.0194L38.4507 14.9916L38.4411 14.9698L38.397 14.9664L38.3924 14.9538L38.402 14.8959L38.4167 14.8715L38.4726 14.8875L38.5318 14.8715C38.5461 14.8614 38.5898 14.8535 38.6284 14.8535C38.667 14.8535 38.7162 14.8421 38.7368 14.8283L38.7842 14.8039L38.83 14.7606L38.9153 14.685L38.9661 14.6292L38.94 14.6065L38.8779 14.588C38.8594 14.5784 38.8111 14.5679 38.7712 14.5645C38.7313 14.562 38.6998 14.5313 38.7006 14.496C38.7015 14.4608 38.7149 14.4196 38.73 14.4041C38.7456 14.3889 38.7603 14.3503 38.7628 14.3184C38.7653 14.2869 38.7636 14.2571 38.7578 14.2512L38.7481 14.2205L38.7397 14.2117L38.7137 14.2331L38.6742 14.2415C38.6624 14.2415 38.6263 14.2663 38.594 14.2961C38.5616 14.3255 38.5024 14.4129 38.4629 14.4897C38.423 14.5662 38.3806 14.6367 38.3672 14.6456L38.3428 14.6897C38.3415 14.7052 38.3495 14.743 38.3588 14.7737C38.3688 14.8035 38.3462 14.8274 38.3084 14.8257C38.2701 14.8241 38.2365 14.8102 38.2323 14.7947L38.2063 14.7476L38.1559 14.751L38.0782 14.79L37.9799 14.8131L37.9127 14.8081L37.8947 14.7741C37.893 14.7615 37.8581 14.7527 37.8174 14.7556C37.7766 14.7585 37.7363 14.7535 37.7271 14.7438C37.7183 14.735 37.6498 14.7178 37.5759 14.7048C37.5024 14.6922 37.4465 14.6636 37.4528 14.6409L37.4562 14.5914C37.4516 14.5868 37.4091 14.5796 37.3613 14.5737C37.313 14.5683 37.2701 14.5502 37.2655 14.5343C37.2609 14.5183 37.2323 14.4805 37.2017 14.4503C37.171 14.4209 37.1466 14.3541 37.1475 14.3028C37.1483 14.2516 37.1361 14.202 37.1198 14.1945L37.0425 14.1857C37.016 14.1899 37.0219 14.1634 37.0555 14.1281C37.0891 14.0933 37.1303 14.0181 37.1475 13.9622C37.1647 13.9064 37.1609 13.8484 37.1391 13.8324C37.1172 13.8173 37.0416 13.8299 36.9702 13.8618C36.8984 13.8933 36.8333 13.9194 36.8241 13.9194L36.8073 13.8917L36.7959 13.8341C36.7896 13.8182 36.7523 13.7993 36.7124 13.793C36.6725 13.7862 36.6153 13.7846 36.5843 13.7892C36.5532 13.7938 36.5145 13.7888 36.4973 13.7783C36.4801 13.7673 36.5381 13.743 36.6254 13.7241C36.7132 13.7052 36.8085 13.7006 36.8371 13.7144C36.8661 13.7279 36.9236 13.7384 36.9656 13.7375C37.0072 13.7367 37.0862 13.7048 37.1412 13.6665C37.1962 13.6287 37.2634 13.5918 37.2907 13.5846L37.3592 13.5254C37.3701 13.5002 37.3629 13.4519 37.3432 13.4171C37.323 13.383 37.3205 13.3499 37.3377 13.3431C37.3554 13.3368 37.3083 13.2948 37.2348 13.2495C37.1601 13.2045 37.0185 13.1688 36.919 13.1705C36.8199 13.1722 36.5208 13.2596 36.2541 13.3641C35.9879 13.4687 35.6577 13.651 35.5208 13.7682C35.3835 13.8854 35.2449 14.0198 35.2125 14.0672C35.1798 14.1138 35.1206 14.176 35.0811 14.205C35.0412 14.2335 34.9689 14.2646 34.9202 14.2734C34.8715 14.2823 34.8413 14.2806 34.853 14.2688L34.8875 14.247C34.8946 14.247 34.9992 14.1399 35.1193 14.0093C35.239 13.8782 35.3377 13.761 35.3377 13.7484L35.3226 13.7106C35.3146 13.7022 35.2613 13.6749 35.205 13.6497C35.1474 13.6241 35.1214 13.604 35.1458 13.604C35.1701 13.604 35.234 13.6191 35.2886 13.6384C35.3427 13.6569 35.3936 13.6632 35.4015 13.651C35.4104 13.6397 35.4519 13.6027 35.4956 13.5691C35.5393 13.5359 35.5746 13.4943 35.5746 13.4775L35.609 13.4297C35.6279 13.4208 35.6968 13.3604 35.7619 13.2957C35.8262 13.2306 35.9467 13.168 36.029 13.1579C36.1113 13.147 36.1878 13.139 36.1983 13.1411L36.2424 13.1197L36.2667 13.0802C36.2667 13.0718 36.2915 13.013 36.3213 12.9492C36.3507 12.8849 36.394 12.8219 36.4167 12.8097L36.4776 12.7669L36.5301 12.7304C36.5481 12.7215 36.8283 12.711 37.1521 12.7073C37.4759 12.7035 37.7556 12.6963 37.7729 12.6909C37.7901 12.6854 37.8695 12.6854 37.9501 12.6909C38.0307 12.6963 38.129 12.711 38.1689 12.7241C38.2088 12.7362 38.3865 12.7333 38.5641 12.7169C38.7418 12.7005 38.8985 12.6825 38.9119 12.6758L38.9778 12.6165C39.0001 12.5905 39.0442 12.5535 39.0761 12.5346C39.1076 12.5157 39.1412 12.4994 39.1513 12.4985L39.2156 12.4687ZM33.1289 15.4469C33.0764 15.491 33.0327 15.5368 33.0323 15.5481L33.0357 15.5939C33.0386 15.6074 33.0399 15.6473 33.039 15.6825C33.0382 15.7178 33.0264 15.7476 33.013 15.7497L32.9769 15.7611L32.9534 15.7707L32.9105 15.8039C32.8937 15.8207 32.8488 15.8476 32.811 15.8631C32.7728 15.8783 32.6031 15.8829 32.4334 15.8724C32.2637 15.8631 32.1113 15.8589 32.0953 15.864L32.0508 15.89L32.0604 15.9333L32.0915 15.9757V16.0353L32.052 16.1172C32.034 16.1387 31.947 16.2054 31.8584 16.2651C31.7698 16.3247 31.6963 16.3734 31.6942 16.3734L31.6858 16.3768L31.6694 16.3835L31.6564 16.3886L31.6434 16.3974C31.6371 16.4003 31.5989 16.4125 31.5581 16.4234C31.5174 16.4339 31.4745 16.4486 31.4624 16.4541L31.4212 16.4654C31.4107 16.4654 31.3729 16.4772 31.3376 16.4915C31.3028 16.5062 31.2532 16.5356 31.2276 16.5574C31.2024 16.5788 31.152 16.6095 31.1159 16.6246C31.0802 16.6401 31.0193 16.6574 30.9815 16.6637C30.9437 16.6704 30.8681 16.6712 30.8143 16.6658C30.7601 16.6599 30.6753 16.6406 30.6257 16.6225C30.5757 16.6049 30.5216 16.5771 30.5039 16.5616L30.4796 16.5078L30.4943 16.4684C30.4989 16.4604 30.509 16.4209 30.5169 16.3793C30.5253 16.3382 30.5388 16.2953 30.5468 16.2844C30.5552 16.2735 30.593 16.2474 30.632 16.2264C30.6711 16.2059 30.7164 16.1723 30.7337 16.1525C30.7505 16.1328 30.7639 16.0328 30.7631 15.9308C30.7618 15.8291 30.7505 15.7145 30.737 15.6771C30.7236 15.6384 30.7118 15.5994 30.7118 15.5897C30.7118 15.5796 30.6833 15.5679 30.6484 15.5637C30.6131 15.5591 30.5627 15.5666 30.5363 15.5796C30.5102 15.5939 30.4661 15.6305 30.4384 15.662C30.4103 15.6939 30.3636 15.7149 30.3347 15.7098L30.2805 15.662C30.2796 15.6414 30.3158 15.5792 30.3607 15.5238C30.4061 15.4696 30.4581 15.3843 30.477 15.3356C30.4964 15.2869 30.5111 15.2369 30.5098 15.2239L30.4989 15.1693L30.4859 15.0861L30.43 14.9895L30.3376 14.9303L30.2687 14.8829C30.2528 14.8644 30.1956 14.8354 30.1423 14.819C30.089 14.8018 30.0289 14.7875 30.0096 14.7875L29.9226 14.8056L29.8735 14.8434L29.8983 14.8929L29.8836 14.9307L29.8113 14.9551L29.7651 15.021L29.7294 15.0895L29.6799 15.1076L29.637 15.0996L29.6123 15.1013C29.6089 15.1059 29.5677 15.1344 29.5203 15.1651C29.4737 15.1958 29.4333 15.2596 29.4317 15.3062C29.43 15.3528 29.4128 15.42 29.3939 15.4553C29.375 15.4906 29.3586 15.5855 29.3577 15.667C29.3569 15.7485 29.364 15.8232 29.3741 15.8342L29.4136 15.8921C29.4254 15.9127 29.4312 15.9938 29.427 16.0731C29.4224 16.1513 29.4035 16.2613 29.3855 16.3172C29.3674 16.373 29.3296 16.4364 29.3019 16.4583L29.2443 16.4994L29.1952 16.5427L29.1482 16.5855C29.1452 16.5868 29.1146 16.5851 29.0793 16.5822C29.044 16.5797 29.0079 16.5738 28.9986 16.5696L28.9558 16.5364C28.9415 16.523 28.9155 16.4663 28.8987 16.41C28.881 16.3541 28.8613 16.2029 28.8542 16.074C28.847 15.9442 28.8567 15.7817 28.8756 15.7111C28.8945 15.6405 28.9235 15.5578 28.9398 15.5271C28.9558 15.4965 28.9705 15.4486 28.9722 15.4221L28.997 15.3419L29.0171 15.2663L28.997 15.1991L28.9613 15.1777C28.9512 15.1785 28.9142 15.2037 28.8794 15.2348C28.8441 15.2655 28.8155 15.2709 28.8155 15.2462L28.8495 15.1743C28.8684 15.1592 28.9167 15.0962 28.9562 15.0345C28.9961 14.9732 29.031 14.9173 29.0335 14.9102L29.0713 14.8724L29.1045 14.8262L29.1238 14.7686C29.1347 14.7485 29.1746 14.7304 29.2128 14.7275C29.2506 14.7245 29.2914 14.73 29.3031 14.7388L29.3556 14.7552L29.4228 14.7123C29.4426 14.6888 29.4867 14.6699 29.5215 14.6699C29.5556 14.6699 29.6219 14.6565 29.669 14.6405C29.716 14.6237 29.7744 14.6145 29.7992 14.6204L29.8567 14.6498L29.9159 14.6779L29.9894 14.6724C30.005 14.6653 30.0734 14.6624 30.1419 14.6661C30.2112 14.6695 30.27 14.6695 30.2733 14.6661C30.2771 14.6619 30.2549 14.6409 30.2242 14.6178C30.1935 14.5956 30.1683 14.5662 30.1683 14.5527L30.152 14.5002C30.1431 14.4847 30.0839 14.4662 30.0209 14.4591C29.9579 14.4519 29.9029 14.4431 29.8995 14.4389L29.8911 14.3919L29.8827 14.3276L29.8533 14.3079C29.8407 14.3096 29.8021 14.3226 29.7681 14.336C29.7336 14.349 29.6568 14.357 29.5971 14.3524C29.5375 14.3478 29.4556 14.3633 29.4149 14.3864C29.3741 14.4104 29.3309 14.4326 29.3183 14.4356C29.3057 14.4398 29.2355 14.4402 29.1624 14.4377C29.0889 14.4351 29.0112 14.4179 28.9881 14.3999L28.9289 14.344L28.9075 14.3007C28.9058 14.2902 28.8449 14.2751 28.7718 14.268C28.6983 14.2608 28.6421 14.239 28.6467 14.2188L28.6681 14.1714L28.729 14.1336L28.7962 14.0895L28.8294 14.0319L28.8277 13.9891C28.8189 13.9874 28.784 13.9937 28.7487 14.0038C28.7135 14.0135 28.6505 14.0475 28.6076 14.0798C28.5648 14.1109 28.5215 14.1491 28.511 14.163C28.5005 14.1777 28.448 14.2104 28.3947 14.2356C28.3413 14.2608 28.2687 14.2827 28.2334 14.2848C28.1985 14.2869 28.1259 14.3079 28.0725 14.3322C28.0192 14.3566 27.9449 14.3793 27.9066 14.3826C27.8688 14.3868 27.8247 14.3814 27.8084 14.3713L27.7655 14.3175L27.7395 14.2701C27.7319 14.2634 27.6601 14.2797 27.5786 14.3062C27.4971 14.3327 27.4295 14.3532 27.4274 14.3532L27.3863 14.3406L27.3539 14.3091C27.3564 14.2999 27.4547 14.2113 27.5723 14.1138C27.6895 14.0164 27.8504 13.9059 27.9302 13.8673C28.0095 13.8295 28.1003 13.8009 28.1322 13.8039C28.1633 13.8064 28.2048 13.7934 28.2242 13.7745L28.2926 13.7199L28.3275 13.6712L28.3686 13.5922L28.4279 13.5393L28.4673 13.5628L28.5278 13.5481L28.5841 13.4985L28.6038 13.4393L28.6433 13.3885L28.6992 13.4103L28.7403 13.4318L28.7681 13.4183L28.7588 13.3956L28.7223 13.3658V13.3217L28.7781 13.2974L28.8407 13.3184L28.8668 13.3562L28.8869 13.3578L28.913 13.3431L28.9524 13.3595L29.0117 13.383C29.0259 13.3864 29.0906 13.3902 29.1557 13.391C29.2208 13.3919 29.2855 13.3973 29.2989 13.4024L29.375 13.462C29.4027 13.4885 29.4493 13.5519 29.4779 13.6014C29.5068 13.651 29.5434 13.7048 29.5598 13.7207L29.6072 13.7619C29.6173 13.7686 29.6555 13.7774 29.6929 13.782C29.7299 13.7867 29.7681 13.7858 29.7782 13.7804L29.8256 13.7707L29.8748 13.7804L29.8928 13.8421L29.8962 13.9181C29.8987 13.9307 29.9268 13.9685 29.9583 14.0021C29.9898 14.0353 30.0134 14.079 30.0108 14.0987L29.9814 14.1605L29.9756 14.2088L30.0377 14.2369L30.0688 14.2629L30.0575 14.3087L30.0705 14.3574L30.1133 14.3835L30.1776 14.4087L30.22 14.4561L30.246 14.4952C30.2565 14.5032 30.5211 14.5523 30.8336 14.6057C31.1461 14.659 31.4065 14.709 31.4132 14.7174L31.4477 14.7489L31.4905 14.806L31.5623 14.8963L31.635 14.9753L31.661 15.0425L31.6938 15.1147L31.7022 15.1601L31.6808 15.2243L31.6442 15.2966L31.5854 15.3159C31.5707 15.3159 31.5165 15.2987 31.464 15.2768C31.4115 15.255 31.3616 15.2268 31.3519 15.2147C31.3431 15.2021 31.3112 15.1722 31.2813 15.1487C31.2519 15.1256 31.2171 15.0937 31.2041 15.0782L31.1566 15.0324L31.1125 15.0198L31.0877 15.0488L31.1154 15.095C31.1335 15.1063 31.1629 15.1403 31.1814 15.1706C31.199 15.2 31.2125 15.2428 31.2104 15.2638L31.1973 15.3134L31.1629 15.3709L31.1138 15.4448L31.0797 15.4923C31.0739 15.504 31.0638 15.5935 31.0562 15.6909C31.0487 15.7884 31.0356 15.8799 31.0272 15.8946L30.976 15.9467L30.9088 15.9879L30.858 16.0181L30.8231 16.0572C30.8143 16.0706 30.8063 16.1143 30.8055 16.1538C30.8046 16.1933 30.7967 16.239 30.7891 16.2558C30.7807 16.2718 30.7463 16.2844 30.7114 16.2831C30.6778 16.2823 30.6404 16.2894 30.6295 16.2995L30.6035 16.3457L30.6089 16.3898C30.6152 16.3986 30.6471 16.4142 30.6795 16.4238C30.7118 16.4339 30.7479 16.4423 30.7597 16.4423C30.7715 16.4423 30.8668 16.3814 30.9718 16.3079C31.076 16.2332 31.17 16.1706 31.1801 16.1681L31.2095 16.1567C31.2158 16.1525 31.2944 16.1555 31.3851 16.1618C31.4754 16.1685 31.5543 16.1685 31.5606 16.1618L31.5766 16.1294C31.5795 16.1172 31.6715 16.0979 31.7803 16.0862C31.8891 16.0744 31.9932 16.058 32.01 16.05L32.0235 16.0135L32.005 15.9807L31.9903 15.9417C31.9823 15.9266 31.9424 15.9144 31.9017 15.9156C31.8609 15.9165 31.8227 15.9068 31.8164 15.8938L31.8017 15.8547L31.8038 15.8186L31.8311 15.7808L31.8744 15.7376C31.8845 15.7241 31.9433 15.6876 32.0037 15.6557C32.0646 15.6242 32.1503 15.5977 32.1944 15.5964C32.2385 15.5956 32.3154 15.5817 32.3649 15.5649C32.4145 15.549 32.4632 15.536 32.4733 15.536C32.4834 15.536 32.5178 15.5452 32.5506 15.5578C32.5829 15.5691 32.6333 15.5822 32.6623 15.5851L32.7345 15.5872L32.7606 15.5637L32.7543 15.5326L32.7362 15.5066C32.7333 15.499 32.7656 15.4851 32.808 15.4759C32.8509 15.4658 32.8971 15.4578 32.9114 15.4578C32.9261 15.4578 33.0042 15.4217 33.0857 15.3789C33.1667 15.3352 33.2314 15.3146 33.2285 15.3327C33.2255 15.3507 33.181 15.4028 33.1289 15.4469Z" fill="#BAC3D9"/>
</svg>
